<?xml version="1.0" encoding="UTF-8" standalone="no"?>
<svg viewBox="-10 -10 1020 1219.3587" xmlns="http://www.w3.org/2000/svg" xmlns:xlink="http://www.w3.org/1999/xlink" version="1.1" width="1020" height="1219"><style></style><g transform="translate(500,599.67935)scale(10,10)translate(-50,-59.967935)" style="transition:transform 0.5s"><g transform="translate(0,0)" style="transition:transform 0.5s"></g><g style="transition:transform 0.5s"><g><metadata xmlns:rdf="http://www.w3.org/1999/02/22-rdf-syntax-ns#" xmlns:cc="http://creativecommons.org/ns#" xmlns:dc="http://purl.org/dc/elements/1.1/"><rdf:RDF><rdf:Description dc:title="Piper Shield (Show)" dc:creator="downton_bridgerton"></rdf:Description><cc:Work rdf:about="https://heraldicon.org/arms/veFeBU/2"><cc:license rdf:resource="https://creativecommons.org/licenses/by/4.0"></cc:license><cc:attributionName>Piper Shield (Show) by downton_bridgerton</cc:attributionName><cc:attributionURL rdf:resource="https://heraldicon.org/users/downton_bridgerton"></cc:attributionURL></cc:Work><cc:License rdf:about="https://creativecommons.org/licenses/by/4.0"><cc:permits rdf:resource="http://creativecommons.org/ns#Reproduction"></cc:permits><cc:permits rdf:resource="http://creativecommons.org/ns#DerivativeWorks"></cc:permits><cc:permits rdf:resource="http://creativecommons.org/ns#Distribution"></cc:permits><cc:requires rdf:resource="http://creativecommons.org/ns#Notice"></cc:requires><cc:requires rdf:resource="http://creativecommons.org/ns#Attribution"></cc:requires></cc:License></rdf:RDF><rdf:RDF rdf:about="https://heraldicon.org/arms/4JWaT6/4"><rdf:Description dc:title="Piper Shield" dc:creator="downton_bridgerton"></rdf:Description><cc:Work rdf:about="https://heraldicon.org/arms/4JWaT6/4"><cc:license rdf:resource="https://creativecommons.org/licenses/by/4.0"></cc:license><cc:attributionName>downton_bridgerton</cc:attributionName><cc:attributionURL rdf:resource="https://heraldicon.org/users/downton_bridgerton"></cc:attributionURL></cc:Work></rdf:RDF></metadata><defs><pattern width="20" height="20" patternUnits="userSpaceOnUse" id="void"><rect x="0" y="0" width="20" height="20" fill="#fff" class="light"></rect><rect x="0" y="0" width="10" height="10" fill="#ddd" class="dark"></rect><rect x="10" y="10" width="10" height="10" fill="#ddd" class="dark"></rect></pattern><pattern width="4" height="4" patternUnits="userSpaceOnUse" id="selected"><rect x="0" y="0" width="4" height="4" fill="#f5f5f5"></rect><g fill="#000"><circle cx="0" cy="0" r="0.3"></circle><circle cx="4" cy="0" r="0.3"></circle><circle cx="0" cy="4" r="0.3"></circle><circle cx="4" cy="4" r="0.3"></circle><circle cx="2" cy="2" r="0.3"></circle></g></pattern><pattern id="ermine" width="12.5" height="20" patternUnits="userSpaceOnUse" x="-3.125" y="-5"><rect x="0" y="0" width="12.5" height="20" fill="#f6f6f6"></rect><g fill="#333333"><path d="M 47.757634,0 C 60.324696,15.689314 25.136924,21.898666 44.167046,36.607392
    52.24587,41.673746 71.273896,30.723464 54.57765,17.322176
    52.423302,16.178163 62.11999,8.3349512 47.757634,0 Z m 21.182372,36.935142 c
    -3.23154,0.326846 -6.282816,2.290268 -9.155302,7.193166 -3.590588,8.33495
    12.209402,22.716724 22.98117,5.06625 C 83.483996,47.069952 94.0755,53.93163
    100,39.386326 89.946316,49.845864 79.713166,37.425428 70.377642,36.935142 Z
    M 29.80469,37.099022 C 20.469164,37.58931 10.053647,50.173186 0,39.55021
    5.9244804,54.095512 16.51881,47.070414 17.416458,49.358438 28.0087,67.008916
    43.805884,52.627142 40.215296,44.292192 36.983772,38.73555 33.395278,36.9356
    29.80469,37.099026 Z m 21.003542,10.13249 c -8.25835,37.262136
    -23.51556,63.576958 -40.211787,82.534868 7.001653,-1.96117
    14.718613,-7.19213 22.258843,-11.93164 -4.667764,9.80582 -9.154602,18.14082
    -13.822364,26.80264 2.692942,-0.98059 11.489886,-9.64435 23.338826,-22.3919
    1.795296,17.48703 4.305204,25.8241 8.07532,37.75452 3.052012,-11.93042
    5.208468,-19.9411 7.54234,-37.9184 7.181178,8.00805 14.001888,16.17984
    23.696484,23.04393 L 68.221186,117.34659 c 7.001634,4.41265
    14.72282,10.29262 22.083522,12.74406 C 72.710832,110.15215
    57.989412,84.493648 50.808232,47.231516 Z" transform="scale(0.0625,0.0625)"></path><path d="M 47.757634,0 C 60.324696,15.689314 25.136924,21.898666 44.167046,36.607392
    52.24587,41.673746 71.273896,30.723464 54.57765,17.322176
    52.423302,16.178163 62.11999,8.3349512 47.757634,0 Z m 21.182372,36.935142 c
    -3.23154,0.326846 -6.282816,2.290268 -9.155302,7.193166 -3.590588,8.33495
    12.209402,22.716724 22.98117,5.06625 C 83.483996,47.069952 94.0755,53.93163
    100,39.386326 89.946316,49.845864 79.713166,37.425428 70.377642,36.935142 Z
    M 29.80469,37.099022 C 20.469164,37.58931 10.053647,50.173186 0,39.55021
    5.9244804,54.095512 16.51881,47.070414 17.416458,49.358438 28.0087,67.008916
    43.805884,52.627142 40.215296,44.292192 36.983772,38.73555 33.395278,36.9356
    29.80469,37.099026 Z m 21.003542,10.13249 c -8.25835,37.262136
    -23.51556,63.576958 -40.211787,82.534868 7.001653,-1.96117
    14.718613,-7.19213 22.258843,-11.93164 -4.667764,9.80582 -9.154602,18.14082
    -13.822364,26.80264 2.692942,-0.98059 11.489886,-9.64435 23.338826,-22.3919
    1.795296,17.48703 4.305204,25.8241 8.07532,37.75452 3.052012,-11.93042
    5.208468,-19.9411 7.54234,-37.9184 7.181178,8.00805 14.001888,16.17984
    23.696484,23.04393 L 68.221186,117.34659 c 7.001634,4.41265
    14.72282,10.29262 22.083522,12.74406 C 72.710832,110.15215
    57.989412,84.493648 50.808232,47.231516 Z" transform="translate(6.25,10) scale(0.0625,0.0625)"></path></g></pattern><pattern id="ermines" width="12.5" height="20" patternUnits="userSpaceOnUse" x="-3.125" y="-5"><rect x="0" y="0" width="12.5" height="20" fill="#333333"></rect><g fill="#f6f6f6"><path d="M 47.757634,0 C 60.324696,15.689314 25.136924,21.898666 44.167046,36.607392
    52.24587,41.673746 71.273896,30.723464 54.57765,17.322176
    52.423302,16.178163 62.11999,8.3349512 47.757634,0 Z m 21.182372,36.935142 c
    -3.23154,0.326846 -6.282816,2.290268 -9.155302,7.193166 -3.590588,8.33495
    12.209402,22.716724 22.98117,5.06625 C 83.483996,47.069952 94.0755,53.93163
    100,39.386326 89.946316,49.845864 79.713166,37.425428 70.377642,36.935142 Z
    M 29.80469,37.099022 C 20.469164,37.58931 10.053647,50.173186 0,39.55021
    5.9244804,54.095512 16.51881,47.070414 17.416458,49.358438 28.0087,67.008916
    43.805884,52.627142 40.215296,44.292192 36.983772,38.73555 33.395278,36.9356
    29.80469,37.099026 Z m 21.003542,10.13249 c -8.25835,37.262136
    -23.51556,63.576958 -40.211787,82.534868 7.001653,-1.96117
    14.718613,-7.19213 22.258843,-11.93164 -4.667764,9.80582 -9.154602,18.14082
    -13.822364,26.80264 2.692942,-0.98059 11.489886,-9.64435 23.338826,-22.3919
    1.795296,17.48703 4.305204,25.8241 8.07532,37.75452 3.052012,-11.93042
    5.208468,-19.9411 7.54234,-37.9184 7.181178,8.00805 14.001888,16.17984
    23.696484,23.04393 L 68.221186,117.34659 c 7.001634,4.41265
    14.72282,10.29262 22.083522,12.74406 C 72.710832,110.15215
    57.989412,84.493648 50.808232,47.231516 Z" transform="scale(0.0625,0.0625)"></path><path d="M 47.757634,0 C 60.324696,15.689314 25.136924,21.898666 44.167046,36.607392
    52.24587,41.673746 71.273896,30.723464 54.57765,17.322176
    52.423302,16.178163 62.11999,8.3349512 47.757634,0 Z m 21.182372,36.935142 c
    -3.23154,0.326846 -6.282816,2.290268 -9.155302,7.193166 -3.590588,8.33495
    12.209402,22.716724 22.98117,5.06625 C 83.483996,47.069952 94.0755,53.93163
    100,39.386326 89.946316,49.845864 79.713166,37.425428 70.377642,36.935142 Z
    M 29.80469,37.099022 C 20.469164,37.58931 10.053647,50.173186 0,39.55021
    5.9244804,54.095512 16.51881,47.070414 17.416458,49.358438 28.0087,67.008916
    43.805884,52.627142 40.215296,44.292192 36.983772,38.73555 33.395278,36.9356
    29.80469,37.099026 Z m 21.003542,10.13249 c -8.25835,37.262136
    -23.51556,63.576958 -40.211787,82.534868 7.001653,-1.96117
    14.718613,-7.19213 22.258843,-11.93164 -4.667764,9.80582 -9.154602,18.14082
    -13.822364,26.80264 2.692942,-0.98059 11.489886,-9.64435 23.338826,-22.3919
    1.795296,17.48703 4.305204,25.8241 8.07532,37.75452 3.052012,-11.93042
    5.208468,-19.9411 7.54234,-37.9184 7.181178,8.00805 14.001888,16.17984
    23.696484,23.04393 L 68.221186,117.34659 c 7.001634,4.41265
    14.72282,10.29262 22.083522,12.74406 C 72.710832,110.15215
    57.989412,84.493648 50.808232,47.231516 Z" transform="translate(6.25,10) scale(0.0625,0.0625)"></path></g></pattern><pattern id="erminois" width="12.5" height="20" patternUnits="userSpaceOnUse" x="-3.125" y="-5"><rect x="0" y="0" width="12.5" height="20" fill="#f2bc51"></rect><g fill="#333333"><path d="M 47.757634,0 C 60.324696,15.689314 25.136924,21.898666 44.167046,36.607392
    52.24587,41.673746 71.273896,30.723464 54.57765,17.322176
    52.423302,16.178163 62.11999,8.3349512 47.757634,0 Z m 21.182372,36.935142 c
    -3.23154,0.326846 -6.282816,2.290268 -9.155302,7.193166 -3.590588,8.33495
    12.209402,22.716724 22.98117,5.06625 C 83.483996,47.069952 94.0755,53.93163
    100,39.386326 89.946316,49.845864 79.713166,37.425428 70.377642,36.935142 Z
    M 29.80469,37.099022 C 20.469164,37.58931 10.053647,50.173186 0,39.55021
    5.9244804,54.095512 16.51881,47.070414 17.416458,49.358438 28.0087,67.008916
    43.805884,52.627142 40.215296,44.292192 36.983772,38.73555 33.395278,36.9356
    29.80469,37.099026 Z m 21.003542,10.13249 c -8.25835,37.262136
    -23.51556,63.576958 -40.211787,82.534868 7.001653,-1.96117
    14.718613,-7.19213 22.258843,-11.93164 -4.667764,9.80582 -9.154602,18.14082
    -13.822364,26.80264 2.692942,-0.98059 11.489886,-9.64435 23.338826,-22.3919
    1.795296,17.48703 4.305204,25.8241 8.07532,37.75452 3.052012,-11.93042
    5.208468,-19.9411 7.54234,-37.9184 7.181178,8.00805 14.001888,16.17984
    23.696484,23.04393 L 68.221186,117.34659 c 7.001634,4.41265
    14.72282,10.29262 22.083522,12.74406 C 72.710832,110.15215
    57.989412,84.493648 50.808232,47.231516 Z" transform="scale(0.0625,0.0625)"></path><path d="M 47.757634,0 C 60.324696,15.689314 25.136924,21.898666 44.167046,36.607392
    52.24587,41.673746 71.273896,30.723464 54.57765,17.322176
    52.423302,16.178163 62.11999,8.3349512 47.757634,0 Z m 21.182372,36.935142 c
    -3.23154,0.326846 -6.282816,2.290268 -9.155302,7.193166 -3.590588,8.33495
    12.209402,22.716724 22.98117,5.06625 C 83.483996,47.069952 94.0755,53.93163
    100,39.386326 89.946316,49.845864 79.713166,37.425428 70.377642,36.935142 Z
    M 29.80469,37.099022 C 20.469164,37.58931 10.053647,50.173186 0,39.55021
    5.9244804,54.095512 16.51881,47.070414 17.416458,49.358438 28.0087,67.008916
    43.805884,52.627142 40.215296,44.292192 36.983772,38.73555 33.395278,36.9356
    29.80469,37.099026 Z m 21.003542,10.13249 c -8.25835,37.262136
    -23.51556,63.576958 -40.211787,82.534868 7.001653,-1.96117
    14.718613,-7.19213 22.258843,-11.93164 -4.667764,9.80582 -9.154602,18.14082
    -13.822364,26.80264 2.692942,-0.98059 11.489886,-9.64435 23.338826,-22.3919
    1.795296,17.48703 4.305204,25.8241 8.07532,37.75452 3.052012,-11.93042
    5.208468,-19.9411 7.54234,-37.9184 7.181178,8.00805 14.001888,16.17984
    23.696484,23.04393 L 68.221186,117.34659 c 7.001634,4.41265
    14.72282,10.29262 22.083522,12.74406 C 72.710832,110.15215
    57.989412,84.493648 50.808232,47.231516 Z" transform="translate(6.25,10) scale(0.0625,0.0625)"></path></g></pattern><pattern id="pean" width="12.5" height="20" patternUnits="userSpaceOnUse" x="-3.125" y="-5"><rect x="0" y="0" width="12.5" height="20" fill="#333333"></rect><g fill="#f2bc51"><path d="M 47.757634,0 C 60.324696,15.689314 25.136924,21.898666 44.167046,36.607392
    52.24587,41.673746 71.273896,30.723464 54.57765,17.322176
    52.423302,16.178163 62.11999,8.3349512 47.757634,0 Z m 21.182372,36.935142 c
    -3.23154,0.326846 -6.282816,2.290268 -9.155302,7.193166 -3.590588,8.33495
    12.209402,22.716724 22.98117,5.06625 C 83.483996,47.069952 94.0755,53.93163
    100,39.386326 89.946316,49.845864 79.713166,37.425428 70.377642,36.935142 Z
    M 29.80469,37.099022 C 20.469164,37.58931 10.053647,50.173186 0,39.55021
    5.9244804,54.095512 16.51881,47.070414 17.416458,49.358438 28.0087,67.008916
    43.805884,52.627142 40.215296,44.292192 36.983772,38.73555 33.395278,36.9356
    29.80469,37.099026 Z m 21.003542,10.13249 c -8.25835,37.262136
    -23.51556,63.576958 -40.211787,82.534868 7.001653,-1.96117
    14.718613,-7.19213 22.258843,-11.93164 -4.667764,9.80582 -9.154602,18.14082
    -13.822364,26.80264 2.692942,-0.98059 11.489886,-9.64435 23.338826,-22.3919
    1.795296,17.48703 4.305204,25.8241 8.07532,37.75452 3.052012,-11.93042
    5.208468,-19.9411 7.54234,-37.9184 7.181178,8.00805 14.001888,16.17984
    23.696484,23.04393 L 68.221186,117.34659 c 7.001634,4.41265
    14.72282,10.29262 22.083522,12.74406 C 72.710832,110.15215
    57.989412,84.493648 50.808232,47.231516 Z" transform="scale(0.0625,0.0625)"></path><path d="M 47.757634,0 C 60.324696,15.689314 25.136924,21.898666 44.167046,36.607392
    52.24587,41.673746 71.273896,30.723464 54.57765,17.322176
    52.423302,16.178163 62.11999,8.3349512 47.757634,0 Z m 21.182372,36.935142 c
    -3.23154,0.326846 -6.282816,2.290268 -9.155302,7.193166 -3.590588,8.33495
    12.209402,22.716724 22.98117,5.06625 C 83.483996,47.069952 94.0755,53.93163
    100,39.386326 89.946316,49.845864 79.713166,37.425428 70.377642,36.935142 Z
    M 29.80469,37.099022 C 20.469164,37.58931 10.053647,50.173186 0,39.55021
    5.9244804,54.095512 16.51881,47.070414 17.416458,49.358438 28.0087,67.008916
    43.805884,52.627142 40.215296,44.292192 36.983772,38.73555 33.395278,36.9356
    29.80469,37.099026 Z m 21.003542,10.13249 c -8.25835,37.262136
    -23.51556,63.576958 -40.211787,82.534868 7.001653,-1.96117
    14.718613,-7.19213 22.258843,-11.93164 -4.667764,9.80582 -9.154602,18.14082
    -13.822364,26.80264 2.692942,-0.98059 11.489886,-9.64435 23.338826,-22.3919
    1.795296,17.48703 4.305204,25.8241 8.07532,37.75452 3.052012,-11.93042
    5.208468,-19.9411 7.54234,-37.9184 7.181178,8.00805 14.001888,16.17984
    23.696484,23.04393 L 68.221186,117.34659 c 7.001634,4.41265
    14.72282,10.29262 22.083522,12.74406 C 72.710832,110.15215
    57.989412,84.493648 50.808232,47.231516 Z" transform="translate(6.25,10) scale(0.0625,0.0625)"></path></g></pattern></defs><defs><mask id="mask_1"><path d="M50,0h50v33.33333c0,35.72656 -19.05989,68.73926 -50,86.60254c-30.94011,-17.86328 -50,-50.87598 -50,-86.60254v-33.33333z" clip-rule="evenodd" fill-rule="evenodd" fill="#fff" stroke="none"></path></mask></defs><g mask="url(#mask_1)"><g><path d="M50,0h50v33.33333c0,35.72656 -19.05989,68.73926 -50,86.60254c-30.94011,-17.86328 -50,-50.87598 -50,-86.60254v-33.33333z" fill-rule="evenodd" fill="#f0f0f0"></path><rect y="-1000" fill="#0c6793" width="2000" x="-1000" height="2000"></rect><g></g><g><g><defs><mask id="mask_5"><g fill="#000" stroke="none" stroke-width="0" style="clip-rule:evenodd" transform="translate(-67.03125,-30.64544677734375)"><g stroke="#000" stroke-width="1" stroke-linecap="round"><path d="M212.6 79.41c-18.6-14.36-24.4-24.04-58.8-28.97-29.7-1.14-60.57 3.84-85.58 13.06 13.74 3.77 23.57 30.41 20.42 37.7 14.16-11.73 45.96-32.33 72.76-34.96 17.5-1.72 24.3-.87 51.2 13.17zM373.4 347.3s17.9-10.9 53.4 3.3c35.5 14.1 43.8 91.3 44.3 101.2-9.9-1.9-36 18.9-41 25.2 3.6-18.1 12.3-75.6-7.1-104.8-10.2-15.4-18.1-21.3-49.6-24.9zM168.5 381.7c-13.7-10.8-21.4-21.4-20.8-34.9.7-16.7 15.9-30.7 29.3-40.7 13.1-9.8 30.2-13.1 46.3-16.3 64.7-13 139.8 20.7 197.6-11.1 16.7-9.2 29.5-30 33.3-46.6 16.6-72.1-7.4-90.5-18.6-107.8 9.6 22.2 11.3 39.3 3.6 56.5-9.8 22.1-33.9 37.2-56.8 45-54.9 18.7-116.6-11.3-173.8-2.3-21.5 3.3-44.1 8.2-61.8 20.8-20.5 14.6-37.8 36.1-46 59.9-4.38 12.5-3.26 29.6-.5 39.7 8.7 30.2 31.3 43.3 68.2 37.8z" stroke="#000" stroke-miterlimit="4.3" stroke-linecap="round" fill="#fff" fill-rule="evenodd"></path><path d="M312.8 68.26C345 71.6 377.5 83.28 404 102c20.4 14.5 39.2 34.4 48 57.8 8.5 22.6 6.6 53.8 2.2 72.3 15.4-35.1 25.8-80.5 16.5-119.6-5.4-22.49-21-43.14-39.5-57.01-19.5-14.59-45.1-20.08-69.2-23.06-21.9-2.7-44.8-1.18-65.9 5.01-26.5 7.76-45.4 37.45-72.9 39.27-24.7 1.63-21.5-19.61-69.4-26.27 29.6 8.9 30.5 18.63 42.8 23.04 12.3 4.41 18.8 7.26 28.7 7.85 29.4 1.75 58.2-16.1 87.5-13.07z" stroke="#000" stroke-miterlimit="4.3" stroke-linecap="round" fill="#fff" fill-rule="evenodd"></path><path d="M365.6 109.4c-.9-3.3-10.2-4.8-13.2-3.2-5.7 2.9-5.7 14.7-12.1 15-6.2.3-4.6-9-12.3-11.4-5.9-1.8-10.6 4.4-13.9 4.5-3.8.1-11.3-14.59-20-14.1-8.1-2.69-17.3 1.2-21.2 6.3-7.4 0-12.1 3.1-15.2 10-2.9 6.5 2.6 18.1-2 23.6-12.8 15.3-3.8 32.3-15.5 42.9-9 8.1-28.3 13.7-15.3 42 17.9 38.7 23.4 85.2 17.2 83.2 25.8-12.6 25.5-23.5 28.5-36.7.4 19.2 6.3 35.3 18.8 47.5-1.7-14.9 3.4-26.8 13.8-33.1 11.8 8.1 14.3 26 20.8 36.5 3.9 6.3 18 11.7 24.7 7.9-17.3-13.5-17-34.5-17.4-46.1 13.9 4.9 17.4 14.7 25.3 28.3 3.1-20.5-10.1-36-22.1-46.8 21.5-.7 31.2 18.2 41.1 27.8 2.7-16.8-7.7-41.7-20-58.2 6.8 9.1 13.4 17.1 24.1 15 12.8-2.5 17.3 3.2 26.1 22.4-1.6-12.5-3.5-26.2-17.6-33.8 10.5 6 32.9-1.7 43.7-16.6-5 5.1-37.7 15.3-51.8 4.2-15.1-11.9-8.7-34.9-18.6-51.4-5.3-8.9-24.1-5.8-26.7-15.8 9 6.7 15.8 4 21.3.2 3.6-2.5 7.7-2.8 12-2.5 13.6 1 24.3 15.9 35-1.8-7 3.3-19.4 1.9-24.3-3.3-6-6.4-6.2-11.6-14.6-14.1-10.6-3.2-10.5 1.8-21.5.9-8.6-.7-11.3-1.4-14.9-9.2 8.6 2.4 14 2.8 19.9-1.4 3.3-2.4 4.9-8.9 7.1-12.3 1.6-2.5 3.1-6.7 10.8-6.4z" stroke="#000" stroke-miterlimit="4.3" stroke-linecap="round" fill="#fff" fill-rule="evenodd"></path><path d="M357.1 517.7c-2.5-7.6 1.1-17.2-3.5-23.7-2.9-4.1-10.9.5-14.8-2.5-5.7-4.4-8.8-11.4-11.6-18-8.2-19.7-24.7-31.1-27.7-33.2-2.4-3.3 1.5-14.3 2.7-19.8 6.4-30.4 13.8-57.2 12.9-87.9-.4-14.5-7.6-28-10.3-42.3-.9-4.9-2.1-8.6-.4-13.3 4.4-11.9 10.8-19.1 18.1-35.5 1.5 13.2 10.5 22.6 16.4 34.3 7.8 15.4 7.8 12.9 13.7 29.1 2.7 7.3 12 17.6 11.9 20.1-.1 2.2-.9 24.6 6.4 26.1l25.5-10.5c1.9-.8.1-4.7-1.4-6.1-5.4-5.1-12.8-13-18.9-18.6-2-9.9-7.5-30.3-13.1-44.9-2.5-6.5-8.5-11.4-10.9-18-6.4-17.4-8.2-37-16.4-53.6-2.9-5.9-10.9-10.3-15.5-15-4.1-4.2-11.32-7.58-12.9-13.19-2.42-8.59 3.3-15.61 1.7-24.41-3.65-6.3-4.54-9.7-5.25-12.58-9.3-6.1-7.75-10.32-9.85-14.62-7.4 1.1-13.53.77-18.93-1.63-.9 3.8-3.87 7.23-8.77 12.33-.4 8.6 1.4 8.1 3.9 13.3 1 5 .7 9 10 17.6.3 2.9-.3 4.7-.4 7.7-9.3-12.4-20.2-18.3-40.6-16-10.1-5.6-24.2-5.8-32.5-5.8 3.1-11 2.4-23.2 3.1-34.8.3-4.1 2.8-9.6 4.7-13.49 9-5.8 11.3-16.74 10.6-21.23-.6-4.15 1.5-7.19-1.3-6.92-2.5.24-2.7 2.45-3.4 5.68-7.8-.73-11.8-3.58-19.6-4.31-1.5 3.95-3.8 8.75-3.6 13.92.1 3.67-.3 5.86.6 10.36-6.6 19.89-12.5 41.99-11 59.89-1.3 2.5 1.9 5.3 3.4 5 17 10.2 35.1 15.3 51.2 17.9 2.9 2.6 3.5 3.8 9.2 5.8-2.6 23-8.6 24.6-11.9 29.6-2.9-.3-4.6 3.6-2.1 5.9-2.3 11.4 4.8 15.6 8.4 17-.9 7.2-.4 16.6-2.3 23.5-2.7 10.1-9.6 15.3-11 25.6-3.5 24.4-10.5 29.7-2.6 76.5 4.1 24.4 5.5 30.9 13.4 54.4 3.4 10 10.5 16 14.1 25.9 6.6 18.1 1.1 6 8.1 24 4.1 10.5 8.2 17.7 10.9 28.7 4 16 22.1 46.3 20.5 56.8-.7 4.8.3 14.5.8 30.7.1 2.4-2.1 5-5.6 7.5 0 0-1.3.5-2.3 1.1-.4.3-1.5 1-.3 1.8.5.7 2.7-.6 5.3-.6-1.2 0-3.6.2-4.8 1.4-.6.5 0 2.1 1.1 2.2 1.9.1 3.6-1.1 5.5-1.6-1.9.9-3.8 1.2-5.4 2.3-.9.7-.2 2.7 1.9 2.6 2.2-.2 3.9-.6 5.8-1.8-1.7 1.6-5.6 1.5-6.8 2.4-1.5 1.2.2 3.6 1.4 3.8 1.4.2 5.1-1.1 7.2-2-1.2 1.1-5.8 1.7-7.6 2.6-1.6.9 0 5 1.7 5.5 3.1.9 7.5-.3 8.9-1.4 3.4-2.8 8.3-3.7 9.7-7.9 2.6-7.8-1.6-16.7.7-24.6 1.6-5.5 8.7-8.2 10.5-13.6 1-3.2-1.2-7-3.1-9.7-2.2-3.1-8.6-3.3-9.1-7.1-2.7-20.7-6.3-41.1-6.6-61.2 7 6.5 17.7 13.5 25 22.1 3.9 4.6 5 11.2 8.2 16.3 2.5 4 6.5 6.9 8.5 11.1 2.1 4.5 1.3 9.9 3.3 14.4.5 1.4-.2 2 1.2 2.7 1.8.8 3.7.3 4.6-1.5 1.2-2.2-.7-5.3-2-7.9 1.1 1.1 1.6 3.3 2.9 4.6 2.1 1.8 2.2-4.7.4-7.3.8 1.3 1.5 4.5 2.9 4.8 2.1.5 1.3-5.3 0-7.8.8.9 1.1 4.3 2.7 4.4 1.7.2 1.3-4.2 0-6.6.6 1.3 1.1 5.2 2.2 4.4 1.7-1.2 1.4-3.8 1.4-5.9 1.3-5.8-7.3-9.7-9.1-15.3z" stroke="#000" stroke-miterlimit="4.3" stroke-linecap="round" fill="#000" fill-rule="evenodd"></path><path d="M304.9 485.2c-3.3-3.6-19.5-14.8-27.4-23.1-1.9-2-6.3-5.6-8.1-14.2-1.5-6.8-.3-13.8-2.5-22.8-7.1-29.5-4.4-38.3-4.4-73.1-7.5-5-14.5-7.1-23.7-21.7M270.5 341.2c4.3-1.6 6.8-3.8 8.8-6.3" stroke="#000" stroke-miterlimit="4.3" stroke-linecap="round" fill="#000" fill-rule="evenodd"></path><path d="M100.3 343.9c8.8 21.8 25.4 29.3 43.1 31.9 33 4.9 61.7-26.9 94.5-33.4 17.9-3.5 36.5-4.3 54.7-2.8 23.2 1.9 45.3 18.9 68.2 14.8 6-1.1 9.8-7.9 15.6-9.9 6.4-2.2 13.5-2.5 20.2-1.9 10.4.8 22.4 4.4 30.2 8-10.4-2.3-31.5-6.5-47.9 1.1-5.5 2.5-9.1 8.5-14.8 10.3-27.5 8.4-58-6.3-86.2-.7-41 8.2-73.6 46.3-115.3 49-12.5.8-26.6-2.1-36.1-10.2-15.8-13.4-26.2-56.2-26.2-56.2z" stroke="#000" stroke-miterlimit="4.3" stroke-linecap="round" fill="#fff" fill-rule="evenodd"></path><path d="M254.3 238.8c-3.2.1-7-.4-9.4-1.4M272.4 239c5.2 7.3 12.1 10.4 19.5 10.9 5.2.4 11.1-1.7 14.5-5.6 6.9-7.7 2.9-13.3 5.4-18.4 1.4-1.4 4.7-2.4 7-1.8 4 .9 7.1 3.8 9.3 8.1" stroke="#000" stroke-miterlimit="4.3" stroke-linecap="round" fill="#000" fill-rule="evenodd"></path><path d="M293.8 231.1c-.4.9-1.9 1-2.8.7-1-.4-2.1-1.5-1.8-2.5.3-.9 1.7-1.4 2.6-1.1 1.1.3 2.4 1.8 2 2.9z" stroke="#000" stroke-miterlimit="4.3" stroke-linecap="round" fill="#fff" fill-rule="evenodd"></path><path d="M255.6 286.6c1 1 2.4.8 3.5.2-1.4.5-1.7 1.3-1.6 3.2" stroke="#000" stroke-miterlimit="4.3" stroke-linecap="round" fill="#000" fill-rule="evenodd"></path><path d="M208 91.11s1.6-5.68 4.7-7.52c2.2-1.29 5.8-1.35 6.1-1.31 1.4-2.67.9-4.32 1.5-5.94" stroke="#000" fill="none"></path><path d="M201.2 70.3c.7-1.72 2.4-3.82 4-3.89 2.1-.1 1.3 4.68.5 6.79-.7 1.89-2.5 4.95-4.4 4.16-2.2-.91-1-4.88-.1-7.06z" stroke="#000" stroke-miterlimit="4.3" stroke-linecap="round" fill="#000" fill-rule="evenodd"></path><path d="M210 65.94c2.6.66 1.9 5.57 1.1 8.2-.9 2.74-3.2 7.31-5.9 6.3-2-.77-.8-4.45-.2-6.56.8-3.02.8-8.89 5-7.94zM219.5 69.32c1.9 1.13 1.4 4.44.9 6.58-.7 2.77-2.4 7.74-5.1 6.89-2.2-.68-.8-4.59-.2-6.76.7-2.57 1.6-8.49 4.4-6.71z" stroke="#000" stroke-miterlimit="4.3" stroke-linecap="round" fill="#000" fill-rule="evenodd"></path><path d="M214.7 66.87c4.5 1.34 1.3 5.94.5 8.76-.7 2.55-1.9 7.39-4.4 6.59-3.2-.99-.8-6.73.2-9.86.7-2.1.5-6.48 3.7-5.49zM238.3 166.9c3.3 5.3 12.6 7.6 12.2 18M280.1 161.2s3.34 1.92 6.12 3.35c3.85 1.99 6.55 2.69 10.06 1.1 3.79-1.71 4.54-4.33 7.44-11.53M277.5 175.5c1.7 5.6 7.1 3.4 10.1 11.2M294.4 184.1c6.4-.4 10.9 1.8 15 4.7M371.7 338.4c.7 3.1.7 4.3 3.3 6.5 2.3 1.9 3.1 5 3 8.3-.1 1.7 1.6 2.5 3.7 2.1 2.7-.5 1.9-8.4 1-11.4.8 2.7 1.8 6.5.7 10.2-.5 1.6 4.3 1 5-.6 1.4-3.2-.4-10.6-.4-10.6s1.1 5.5.7 9.5c-.1 1.3 3.3 1 3.9-.3.9-2.2-.1-9.9-.1-9.9s1 5.9.5 9c-.1 1 2.2.7 2.6-.2 2.7-5.2 1.5-11.3 1.5-12.7M283.69 147.63c.7 1.2.54 2.84 1.94 2.84 2.2 0 2.5-2.37 3.99-1.64M292.37 128.9c-4.13.79-8.42 2.5-8.48 4.9M277.2 136.9c-3.9-.7-6.4.4-7.8 2.8" stroke="#000" stroke-miterlimit="4.3" stroke-linecap="round" fill="#000" fill-rule="evenodd"></path><path d="M272.34 143.08c2.99.43 5.64-1.91 6.59-3.04-2.88-1.54-7.01-.12-6.59 3.04z" stroke="#000" stroke-miterlimit="4.3" stroke-linecap="round" fill="#fff" fill-rule="evenodd"></path><path d="M286.13 158.26c5.07 2.27 8.56.5 10.07-5.06 0 0-2.7 0-4.06.47-.69.26-.75 1.07-1.4 1.39-.58.29-1.15.1-1.74.33-1.14.48-2.87 2.87-2.87 2.87z" stroke="#000" stroke-miterlimit="4.3" stroke-linecap="round" fill="#000" fill-rule="evenodd"></path><path d="M303.75 134.22c8 6.8 17.5 5.5 22.1 11.1M355.6 235.3c-10.2-14.2-6.7-19.7-14.5-28.1M322.5 241.5c-.8-5.1-.7-6.9-.4-9.2" stroke="#000" fill="none"></path><path d="M287.05 136.62c3.21.46 5.72-1.31 6.95-3.38-2.66-1.68-6.46-.47-6.95 3.38z" stroke="#000" stroke-miterlimit="4.3" stroke-linecap="round" fill="#fff" fill-rule="evenodd"></path><circle fill-rule="evenodd" r="1" stroke="#000" fill="#fff" stroke-linecap="round" cx="275.72" cy="140.77" stroke-miterlimit="4.3"></circle><circle fill-rule="evenodd" r="1" stroke="#000" fill="#fff" stroke-linecap="round" cx="290.51" cy="134.34" stroke-miterlimit="4.3"></circle><path d="M286.13 158.26c5.08-.52 7.43-2.86 10.07-5.06" stroke="#000" stroke-miterlimit="4.3" stroke-linecap="round" fill="#000" fill-rule="evenodd"></path></g></g></mask><mask id="mask_6"><g fill="#000" stroke="none" stroke-width="0" style="clip-rule:evenodd" transform="translate(-67.03125,-30.64544677734375)"><g stroke="#000" stroke-width="1" stroke-linecap="round"><path d="M212.6 79.41c-18.6-14.36-24.4-24.04-58.8-28.97-29.7-1.14-60.57 3.84-85.58 13.06 13.74 3.77 23.57 30.41 20.42 37.7 14.16-11.73 45.96-32.33 72.76-34.96 17.5-1.72 24.3-.87 51.2 13.17zM373.4 347.3s17.9-10.9 53.4 3.3c35.5 14.1 43.8 91.3 44.3 101.2-9.9-1.9-36 18.9-41 25.2 3.6-18.1 12.3-75.6-7.1-104.8-10.2-15.4-18.1-21.3-49.6-24.9zM168.5 381.7c-13.7-10.8-21.4-21.4-20.8-34.9.7-16.7 15.9-30.7 29.3-40.7 13.1-9.8 30.2-13.1 46.3-16.3 64.7-13 139.8 20.7 197.6-11.1 16.7-9.2 29.5-30 33.3-46.6 16.6-72.1-7.4-90.5-18.6-107.8 9.6 22.2 11.3 39.3 3.6 56.5-9.8 22.1-33.9 37.2-56.8 45-54.9 18.7-116.6-11.3-173.8-2.3-21.5 3.3-44.1 8.2-61.8 20.8-20.5 14.6-37.8 36.1-46 59.9-4.38 12.5-3.26 29.6-.5 39.7 8.7 30.2 31.3 43.3 68.2 37.8z" stroke="#000" stroke-miterlimit="4.3" stroke-linecap="round" fill="#000" fill-rule="evenodd"></path><path d="M312.8 68.26C345 71.6 377.5 83.28 404 102c20.4 14.5 39.2 34.4 48 57.8 8.5 22.6 6.6 53.8 2.2 72.3 15.4-35.1 25.8-80.5 16.5-119.6-5.4-22.49-21-43.14-39.5-57.01-19.5-14.59-45.1-20.08-69.2-23.06-21.9-2.7-44.8-1.18-65.9 5.01-26.5 7.76-45.4 37.45-72.9 39.27-24.7 1.63-21.5-19.61-69.4-26.27 29.6 8.9 30.5 18.63 42.8 23.04 12.3 4.41 18.8 7.26 28.7 7.85 29.4 1.75 58.2-16.1 87.5-13.07z" stroke="#000" stroke-miterlimit="4.3" stroke-linecap="round" fill="#000" fill-rule="evenodd"></path><path d="M365.6 109.4c-.9-3.3-10.2-4.8-13.2-3.2-5.7 2.9-5.7 14.7-12.1 15-6.2.3-4.6-9-12.3-11.4-5.9-1.8-10.6 4.4-13.9 4.5-3.8.1-11.3-14.59-20-14.1-8.1-2.69-17.3 1.2-21.2 6.3-7.4 0-12.1 3.1-15.2 10-2.9 6.5 2.6 18.1-2 23.6-12.8 15.3-3.8 32.3-15.5 42.9-9 8.1-28.3 13.7-15.3 42 17.9 38.7 23.4 85.2 17.2 83.2 25.8-12.6 25.5-23.5 28.5-36.7.4 19.2 6.3 35.3 18.8 47.5-1.7-14.9 3.4-26.8 13.8-33.1 11.8 8.1 14.3 26 20.8 36.5 3.9 6.3 18 11.7 24.7 7.9-17.3-13.5-17-34.5-17.4-46.1 13.9 4.9 17.4 14.7 25.3 28.3 3.1-20.5-10.1-36-22.1-46.8 21.5-.7 31.2 18.2 41.1 27.8 2.7-16.8-7.7-41.7-20-58.2 6.8 9.1 13.4 17.1 24.1 15 12.8-2.5 17.3 3.2 26.1 22.4-1.6-12.5-3.5-26.2-17.6-33.8 10.5 6 32.9-1.7 43.7-16.6-5 5.1-37.7 15.3-51.8 4.2-15.1-11.9-8.7-34.9-18.6-51.4-5.3-8.9-24.1-5.8-26.7-15.8 9 6.7 15.8 4 21.3.2 3.6-2.5 7.7-2.8 12-2.5 13.6 1 24.3 15.9 35-1.8-7 3.3-19.4 1.9-24.3-3.3-6-6.4-6.2-11.6-14.6-14.1-10.6-3.2-10.5 1.8-21.5.9-8.6-.7-11.3-1.4-14.9-9.2 8.6 2.4 14 2.8 19.9-1.4 3.3-2.4 4.9-8.9 7.1-12.3 1.6-2.5 3.1-6.7 10.8-6.4z" stroke="#000" stroke-miterlimit="4.3" stroke-linecap="round" fill="#000" fill-rule="evenodd"></path><path d="M357.1 517.7c-2.5-7.6 1.1-17.2-3.5-23.7-2.9-4.1-10.9.5-14.8-2.5-5.7-4.4-8.8-11.4-11.6-18-8.2-19.7-24.7-31.1-27.7-33.2-2.4-3.3 1.5-14.3 2.7-19.8 6.4-30.4 13.8-57.2 12.9-87.9-.4-14.5-7.6-28-10.3-42.3-.9-4.9-2.1-8.6-.4-13.3 4.4-11.9 10.8-19.1 18.1-35.5 1.5 13.2 10.5 22.6 16.4 34.3 7.8 15.4 7.8 12.9 13.7 29.1 2.7 7.3 12 17.6 11.9 20.1-.1 2.2-.9 24.6 6.4 26.1l25.5-10.5c1.9-.8.1-4.7-1.4-6.1-5.4-5.1-12.8-13-18.9-18.6-2-9.9-7.5-30.3-13.1-44.9-2.5-6.5-8.5-11.4-10.9-18-6.4-17.4-8.2-37-16.4-53.6-2.9-5.9-10.9-10.3-15.5-15-4.1-4.2-11.32-7.58-12.9-13.19-2.42-8.59 3.3-15.61 1.7-24.41-3.65-6.3-4.54-9.7-5.25-12.58-9.3-6.1-7.75-10.32-9.85-14.62-7.4 1.1-13.53.77-18.93-1.63-.9 3.8-3.87 7.23-8.77 12.33-.4 8.6 1.4 8.1 3.9 13.3 1 5 .7 9 10 17.6.3 2.9-.3 4.7-.4 7.7-9.3-12.4-20.2-18.3-40.6-16-10.1-5.6-24.2-5.8-32.5-5.8 3.1-11 2.4-23.2 3.1-34.8.3-4.1 2.8-9.6 4.7-13.49 9-5.8 11.3-16.74 10.6-21.23-.6-4.15 1.5-7.19-1.3-6.92-2.5.24-2.7 2.45-3.4 5.68-7.8-.73-11.8-3.58-19.6-4.31-1.5 3.95-3.8 8.75-3.6 13.92.1 3.67-.3 5.86.6 10.36-6.6 19.89-12.5 41.99-11 59.89-1.3 2.5 1.9 5.3 3.4 5 17 10.2 35.1 15.3 51.2 17.9 2.9 2.6 3.5 3.8 9.2 5.8-2.6 23-8.6 24.6-11.9 29.6-2.9-.3-4.6 3.6-2.1 5.9-2.3 11.4 4.8 15.6 8.4 17-.9 7.2-.4 16.6-2.3 23.5-2.7 10.1-9.6 15.3-11 25.6-3.5 24.4-10.5 29.7-2.6 76.5 4.1 24.4 5.5 30.9 13.4 54.4 3.4 10 10.5 16 14.1 25.9 6.6 18.1 1.1 6 8.1 24 4.1 10.5 8.2 17.7 10.9 28.7 4 16 22.1 46.3 20.5 56.8-.7 4.8.3 14.5.8 30.7.1 2.4-2.1 5-5.6 7.5 0 0-1.3.5-2.3 1.1-.4.3-1.5 1-.3 1.8.5.7 2.7-.6 5.3-.6-1.2 0-3.6.2-4.8 1.4-.6.5 0 2.1 1.1 2.2 1.9.1 3.6-1.1 5.5-1.6-1.9.9-3.8 1.2-5.4 2.3-.9.7-.2 2.7 1.9 2.6 2.2-.2 3.9-.6 5.8-1.8-1.7 1.6-5.6 1.5-6.8 2.4-1.5 1.2.2 3.6 1.4 3.8 1.4.2 5.1-1.1 7.2-2-1.2 1.1-5.8 1.7-7.6 2.6-1.6.9 0 5 1.7 5.5 3.1.9 7.5-.3 8.9-1.4 3.4-2.8 8.3-3.7 9.7-7.9 2.6-7.8-1.6-16.7.7-24.6 1.6-5.5 8.7-8.2 10.5-13.6 1-3.2-1.2-7-3.1-9.7-2.2-3.1-8.6-3.3-9.1-7.1-2.7-20.7-6.3-41.1-6.6-61.2 7 6.5 17.7 13.5 25 22.1 3.9 4.6 5 11.2 8.2 16.3 2.5 4 6.5 6.9 8.5 11.1 2.1 4.5 1.3 9.9 3.3 14.4.5 1.4-.2 2 1.2 2.7 1.8.8 3.7.3 4.6-1.5 1.2-2.2-.7-5.3-2-7.9 1.1 1.1 1.6 3.3 2.9 4.6 2.1 1.8 2.2-4.7.4-7.3.8 1.3 1.5 4.5 2.9 4.8 2.1.5 1.3-5.3 0-7.8.8.9 1.1 4.3 2.7 4.4 1.7.2 1.3-4.2 0-6.6.6 1.3 1.1 5.2 2.2 4.4 1.7-1.2 1.4-3.8 1.4-5.9 1.3-5.8-7.3-9.7-9.1-15.3z" stroke="#000" stroke-miterlimit="4.3" stroke-linecap="round" fill="#fff" fill-rule="evenodd"></path><path d="M304.9 485.2c-3.3-3.6-19.5-14.8-27.4-23.1-1.9-2-6.3-5.6-8.1-14.2-1.5-6.8-.3-13.8-2.5-22.8-7.1-29.5-4.4-38.3-4.4-73.1-7.5-5-14.5-7.1-23.7-21.7M270.5 341.2c4.3-1.6 6.8-3.8 8.8-6.3" stroke="#000" stroke-miterlimit="4.3" stroke-linecap="round" fill="#fff" fill-rule="evenodd"></path><path d="M100.3 343.9c8.8 21.8 25.4 29.3 43.1 31.9 33 4.9 61.7-26.9 94.5-33.4 17.9-3.5 36.5-4.3 54.7-2.8 23.2 1.9 45.3 18.9 68.2 14.8 6-1.1 9.8-7.9 15.6-9.9 6.4-2.2 13.5-2.5 20.2-1.9 10.4.8 22.4 4.4 30.2 8-10.4-2.3-31.5-6.5-47.9 1.1-5.5 2.5-9.1 8.5-14.8 10.3-27.5 8.4-58-6.3-86.2-.7-41 8.2-73.6 46.3-115.3 49-12.5.8-26.6-2.1-36.1-10.2-15.8-13.4-26.2-56.2-26.2-56.2z" stroke="#000" stroke-miterlimit="4.3" stroke-linecap="round" fill="#000" fill-rule="evenodd"></path><path d="M254.3 238.8c-3.2.1-7-.4-9.4-1.4M272.4 239c5.2 7.3 12.1 10.4 19.5 10.9 5.2.4 11.1-1.7 14.5-5.6 6.9-7.7 2.9-13.3 5.4-18.4 1.4-1.4 4.7-2.4 7-1.8 4 .9 7.1 3.8 9.3 8.1" stroke="#000" stroke-miterlimit="4.3" stroke-linecap="round" fill="#fff" fill-rule="evenodd"></path><path d="M293.8 231.1c-.4.9-1.9 1-2.8.7-1-.4-2.1-1.5-1.8-2.5.3-.9 1.7-1.4 2.6-1.1 1.1.3 2.4 1.8 2 2.9z" stroke="#000" stroke-miterlimit="4.3" stroke-linecap="round" fill="#000" fill-rule="evenodd"></path><path d="M255.6 286.6c1 1 2.4.8 3.5.2-1.4.5-1.7 1.3-1.6 3.2" stroke="#000" stroke-miterlimit="4.3" stroke-linecap="round" fill="#fff" fill-rule="evenodd"></path><path d="M208 91.11s1.6-5.68 4.7-7.52c2.2-1.29 5.8-1.35 6.1-1.31 1.4-2.67.9-4.32 1.5-5.94" stroke="#000" fill="none"></path><path d="M201.2 70.3c.7-1.72 2.4-3.82 4-3.89 2.1-.1 1.3 4.68.5 6.79-.7 1.89-2.5 4.95-4.4 4.16-2.2-.91-1-4.88-.1-7.06z" stroke="#000" stroke-miterlimit="4.3" stroke-linecap="round" fill="#fff" fill-rule="evenodd"></path><path d="M210 65.94c2.6.66 1.9 5.57 1.1 8.2-.9 2.74-3.2 7.31-5.9 6.3-2-.77-.8-4.45-.2-6.56.8-3.02.8-8.89 5-7.94zM219.5 69.32c1.9 1.13 1.4 4.44.9 6.58-.7 2.77-2.4 7.74-5.1 6.89-2.2-.68-.8-4.59-.2-6.76.7-2.57 1.6-8.49 4.4-6.71z" stroke="#000" stroke-miterlimit="4.3" stroke-linecap="round" fill="#fff" fill-rule="evenodd"></path><path d="M214.7 66.87c4.5 1.34 1.3 5.94.5 8.76-.7 2.55-1.9 7.39-4.4 6.59-3.2-.99-.8-6.73.2-9.86.7-2.1.5-6.48 3.7-5.49zM238.3 166.9c3.3 5.3 12.6 7.6 12.2 18M280.1 161.2s3.34 1.92 6.12 3.35c3.85 1.99 6.55 2.69 10.06 1.1 3.79-1.71 4.54-4.33 7.44-11.53M277.5 175.5c1.7 5.6 7.1 3.4 10.1 11.2M294.4 184.1c6.4-.4 10.9 1.8 15 4.7M371.7 338.4c.7 3.1.7 4.3 3.3 6.5 2.3 1.9 3.1 5 3 8.3-.1 1.7 1.6 2.5 3.7 2.1 2.7-.5 1.9-8.4 1-11.4.8 2.7 1.8 6.5.7 10.2-.5 1.6 4.3 1 5-.6 1.4-3.2-.4-10.6-.4-10.6s1.1 5.5.7 9.5c-.1 1.3 3.3 1 3.9-.3.9-2.2-.1-9.9-.1-9.9s1 5.9.5 9c-.1 1 2.2.7 2.6-.2 2.7-5.2 1.5-11.3 1.5-12.7M283.69 147.63c.7 1.2.54 2.84 1.94 2.84 2.2 0 2.5-2.37 3.99-1.64M292.37 128.9c-4.13.79-8.42 2.5-8.48 4.9M277.2 136.9c-3.9-.7-6.4.4-7.8 2.8" stroke="#000" stroke-miterlimit="4.3" stroke-linecap="round" fill="#fff" fill-rule="evenodd"></path><path d="M272.34 143.08c2.99.43 5.64-1.91 6.59-3.04-2.88-1.54-7.01-.12-6.59 3.04z" stroke="#000" stroke-miterlimit="4.3" stroke-linecap="round" fill="#000" fill-rule="evenodd"></path><path d="M286.13 158.26c5.07 2.27 8.56.5 10.07-5.06 0 0-2.7 0-4.06.47-.69.26-.75 1.07-1.4 1.39-.58.29-1.15.1-1.74.33-1.14.48-2.87 2.87-2.87 2.87z" stroke="#000" stroke-miterlimit="4.3" stroke-linecap="round" fill="#fff" fill-rule="evenodd"></path><path d="M303.75 134.22c8 6.8 17.5 5.5 22.1 11.1M355.6 235.3c-10.2-14.2-6.7-19.7-14.5-28.1M322.5 241.5c-.8-5.1-.7-6.9-.4-9.2" stroke="#000" fill="none"></path><path d="M287.05 136.62c3.21.46 5.72-1.31 6.95-3.38-2.66-1.68-6.46-.47-6.95 3.38z" stroke="#000" stroke-miterlimit="4.3" stroke-linecap="round" fill="#000" fill-rule="evenodd"></path><circle fill-rule="evenodd" r="1" stroke="#000" fill="#000" stroke-linecap="round" cx="275.72" cy="140.77" stroke-miterlimit="4.3"></circle><circle fill-rule="evenodd" r="1" stroke="#000" fill="#000" stroke-linecap="round" cx="290.51" cy="134.34" stroke-miterlimit="4.3"></circle><path d="M286.13 158.26c5.08-.52 7.43-2.86 10.07-5.06" stroke="#000" stroke-miterlimit="4.3" stroke-linecap="round" fill="#fff" fill-rule="evenodd"></path></g></g></mask><mask id="mask_7"><g fill="#fff" stroke="none" stroke-width="0" style="clip-rule:evenodd" transform="translate(-67.03125,-30.64544677734375)"><g stroke="#fff" stroke-width="1" stroke-linecap="round"><path d="M212.6 79.41c-18.6-14.36-24.4-24.04-58.8-28.97-29.7-1.14-60.57 3.84-85.58 13.06 13.74 3.77 23.57 30.41 20.42 37.7 14.16-11.73 45.96-32.33 72.76-34.96 17.5-1.72 24.3-.87 51.2 13.17zM373.4 347.3s17.9-10.9 53.4 3.3c35.5 14.1 43.8 91.3 44.3 101.2-9.9-1.9-36 18.9-41 25.2 3.6-18.1 12.3-75.6-7.1-104.8-10.2-15.4-18.1-21.3-49.6-24.9zM168.5 381.7c-13.7-10.8-21.4-21.4-20.8-34.9.7-16.7 15.9-30.7 29.3-40.7 13.1-9.8 30.2-13.1 46.3-16.3 64.7-13 139.8 20.7 197.6-11.1 16.7-9.2 29.5-30 33.3-46.6 16.6-72.1-7.4-90.5-18.6-107.8 9.6 22.2 11.3 39.3 3.6 56.5-9.8 22.1-33.9 37.2-56.8 45-54.9 18.7-116.6-11.3-173.8-2.3-21.5 3.3-44.1 8.2-61.8 20.8-20.5 14.6-37.8 36.1-46 59.9-4.38 12.5-3.26 29.6-.5 39.7 8.7 30.2 31.3 43.3 68.2 37.8z" stroke="#fff" stroke-miterlimit="4.3" stroke-linecap="round" fill="#fff" fill-rule="evenodd"></path><path d="M312.8 68.26C345 71.6 377.5 83.28 404 102c20.4 14.5 39.2 34.4 48 57.8 8.5 22.6 6.6 53.8 2.2 72.3 15.4-35.1 25.8-80.5 16.5-119.6-5.4-22.49-21-43.14-39.5-57.01-19.5-14.59-45.1-20.08-69.2-23.06-21.9-2.7-44.8-1.18-65.9 5.01-26.5 7.76-45.4 37.45-72.9 39.27-24.7 1.63-21.5-19.61-69.4-26.27 29.6 8.9 30.5 18.63 42.8 23.04 12.3 4.41 18.8 7.26 28.7 7.85 29.4 1.75 58.2-16.1 87.5-13.07z" stroke="#fff" stroke-miterlimit="4.3" stroke-linecap="round" fill="#fff" fill-rule="evenodd"></path><path d="M365.6 109.4c-.9-3.3-10.2-4.8-13.2-3.2-5.7 2.9-5.7 14.7-12.1 15-6.2.3-4.6-9-12.3-11.4-5.9-1.8-10.6 4.4-13.9 4.5-3.8.1-11.3-14.59-20-14.1-8.1-2.69-17.3 1.2-21.2 6.3-7.4 0-12.1 3.1-15.2 10-2.9 6.5 2.6 18.1-2 23.6-12.8 15.3-3.8 32.3-15.5 42.9-9 8.1-28.3 13.7-15.3 42 17.9 38.7 23.4 85.2 17.2 83.2 25.8-12.6 25.5-23.5 28.5-36.7.4 19.2 6.3 35.3 18.8 47.5-1.7-14.9 3.4-26.8 13.8-33.1 11.8 8.1 14.3 26 20.8 36.5 3.9 6.3 18 11.7 24.7 7.9-17.3-13.5-17-34.5-17.4-46.1 13.9 4.9 17.4 14.7 25.3 28.3 3.1-20.5-10.1-36-22.1-46.8 21.5-.7 31.2 18.2 41.1 27.8 2.7-16.8-7.7-41.7-20-58.2 6.8 9.1 13.4 17.1 24.1 15 12.8-2.5 17.3 3.2 26.1 22.4-1.6-12.5-3.5-26.2-17.6-33.8 10.5 6 32.9-1.7 43.7-16.6-5 5.1-37.7 15.3-51.8 4.2-15.1-11.9-8.7-34.9-18.6-51.4-5.3-8.9-24.1-5.8-26.7-15.8 9 6.7 15.8 4 21.3.2 3.6-2.5 7.7-2.8 12-2.5 13.6 1 24.3 15.9 35-1.8-7 3.3-19.4 1.9-24.3-3.3-6-6.4-6.2-11.6-14.6-14.1-10.6-3.2-10.5 1.8-21.5.9-8.6-.7-11.3-1.4-14.9-9.2 8.6 2.4 14 2.8 19.9-1.4 3.3-2.4 4.9-8.9 7.1-12.3 1.6-2.5 3.1-6.7 10.8-6.4z" stroke="#fff" stroke-miterlimit="4.3" stroke-linecap="round" fill="#fff" fill-rule="evenodd"></path><path d="M357.1 517.7c-2.5-7.6 1.1-17.2-3.5-23.7-2.9-4.1-10.9.5-14.8-2.5-5.7-4.4-8.8-11.4-11.6-18-8.2-19.7-24.7-31.1-27.7-33.2-2.4-3.3 1.5-14.3 2.7-19.8 6.4-30.4 13.8-57.2 12.9-87.9-.4-14.5-7.6-28-10.3-42.3-.9-4.9-2.1-8.6-.4-13.3 4.4-11.9 10.8-19.1 18.1-35.5 1.5 13.2 10.5 22.6 16.4 34.3 7.8 15.4 7.8 12.9 13.7 29.1 2.7 7.3 12 17.6 11.9 20.1-.1 2.2-.9 24.6 6.4 26.1l25.5-10.5c1.9-.8.1-4.7-1.4-6.1-5.4-5.1-12.8-13-18.9-18.6-2-9.9-7.5-30.3-13.1-44.9-2.5-6.5-8.5-11.4-10.9-18-6.4-17.4-8.2-37-16.4-53.6-2.9-5.9-10.9-10.3-15.5-15-4.1-4.2-11.32-7.58-12.9-13.19-2.42-8.59 3.3-15.61 1.7-24.41-3.65-6.3-4.54-9.7-5.25-12.58-9.3-6.1-7.75-10.32-9.85-14.62-7.4 1.1-13.53.77-18.93-1.63-.9 3.8-3.87 7.23-8.77 12.33-.4 8.6 1.4 8.1 3.9 13.3 1 5 .7 9 10 17.6.3 2.9-.3 4.7-.4 7.7-9.3-12.4-20.2-18.3-40.6-16-10.1-5.6-24.2-5.8-32.5-5.8 3.1-11 2.4-23.2 3.1-34.8.3-4.1 2.8-9.6 4.7-13.49 9-5.8 11.3-16.74 10.6-21.23-.6-4.15 1.5-7.19-1.3-6.92-2.5.24-2.7 2.45-3.4 5.68-7.8-.73-11.8-3.58-19.6-4.31-1.5 3.95-3.8 8.75-3.6 13.92.1 3.67-.3 5.86.6 10.36-6.6 19.89-12.5 41.99-11 59.89-1.3 2.5 1.9 5.3 3.4 5 17 10.2 35.1 15.3 51.2 17.9 2.9 2.6 3.5 3.8 9.2 5.8-2.6 23-8.6 24.6-11.9 29.6-2.9-.3-4.6 3.6-2.1 5.9-2.3 11.4 4.8 15.6 8.4 17-.9 7.2-.4 16.6-2.3 23.5-2.7 10.1-9.6 15.3-11 25.6-3.5 24.4-10.5 29.7-2.6 76.5 4.1 24.4 5.5 30.9 13.4 54.4 3.4 10 10.5 16 14.1 25.9 6.6 18.1 1.1 6 8.1 24 4.1 10.5 8.2 17.7 10.9 28.7 4 16 22.1 46.3 20.5 56.8-.7 4.8.3 14.5.8 30.7.1 2.4-2.1 5-5.6 7.5 0 0-1.3.5-2.3 1.1-.4.3-1.5 1-.3 1.8.5.7 2.7-.6 5.3-.6-1.2 0-3.6.2-4.8 1.4-.6.5 0 2.1 1.1 2.2 1.9.1 3.6-1.1 5.5-1.6-1.9.9-3.8 1.2-5.4 2.3-.9.7-.2 2.7 1.9 2.6 2.2-.2 3.9-.6 5.8-1.8-1.7 1.6-5.6 1.5-6.8 2.4-1.5 1.2.2 3.6 1.4 3.8 1.4.2 5.1-1.1 7.2-2-1.2 1.1-5.8 1.7-7.6 2.6-1.6.9 0 5 1.7 5.5 3.1.9 7.5-.3 8.9-1.4 3.4-2.8 8.3-3.7 9.7-7.9 2.6-7.8-1.6-16.7.7-24.6 1.6-5.5 8.7-8.2 10.5-13.6 1-3.2-1.2-7-3.1-9.7-2.2-3.1-8.6-3.3-9.1-7.1-2.7-20.7-6.3-41.1-6.6-61.2 7 6.5 17.7 13.5 25 22.1 3.9 4.6 5 11.2 8.2 16.3 2.5 4 6.5 6.9 8.5 11.1 2.1 4.5 1.3 9.9 3.3 14.4.5 1.4-.2 2 1.2 2.7 1.8.8 3.7.3 4.6-1.5 1.2-2.2-.7-5.3-2-7.9 1.1 1.1 1.6 3.3 2.9 4.6 2.1 1.8 2.2-4.7.4-7.3.8 1.3 1.5 4.5 2.9 4.8 2.1.5 1.3-5.3 0-7.8.8.9 1.1 4.3 2.7 4.4 1.7.2 1.3-4.2 0-6.6.6 1.3 1.1 5.2 2.2 4.4 1.7-1.2 1.4-3.8 1.4-5.9 1.3-5.8-7.3-9.7-9.1-15.3z" stroke="#fff" stroke-miterlimit="4.3" stroke-linecap="round" fill="#fff" fill-rule="evenodd"></path><path d="M304.9 485.2c-3.3-3.6-19.5-14.8-27.4-23.1-1.9-2-6.3-5.6-8.1-14.2-1.5-6.8-.3-13.8-2.5-22.8-7.1-29.5-4.4-38.3-4.4-73.1-7.5-5-14.5-7.1-23.7-21.7M270.5 341.2c4.3-1.6 6.8-3.8 8.8-6.3" stroke="#fff" stroke-miterlimit="4.3" stroke-linecap="round" fill="#fff" fill-rule="evenodd"></path><path d="M100.3 343.9c8.8 21.8 25.4 29.3 43.1 31.9 33 4.9 61.7-26.9 94.5-33.4 17.9-3.5 36.5-4.3 54.7-2.8 23.2 1.9 45.3 18.9 68.2 14.8 6-1.1 9.8-7.9 15.6-9.9 6.4-2.2 13.5-2.5 20.2-1.9 10.4.8 22.4 4.4 30.2 8-10.4-2.3-31.5-6.5-47.9 1.1-5.5 2.5-9.1 8.5-14.8 10.3-27.5 8.4-58-6.3-86.2-.7-41 8.2-73.6 46.3-115.3 49-12.5.8-26.6-2.1-36.1-10.2-15.8-13.4-26.2-56.2-26.2-56.2z" stroke="#fff" stroke-miterlimit="4.3" stroke-linecap="round" fill="#fff" fill-rule="evenodd"></path><path d="M254.3 238.8c-3.2.1-7-.4-9.4-1.4M272.4 239c5.2 7.3 12.1 10.4 19.5 10.9 5.2.4 11.1-1.7 14.5-5.6 6.9-7.7 2.9-13.3 5.4-18.4 1.4-1.4 4.7-2.4 7-1.8 4 .9 7.1 3.8 9.3 8.1" stroke="#fff" stroke-miterlimit="4.3" stroke-linecap="round" fill="#fff" fill-rule="evenodd"></path><path d="M293.8 231.1c-.4.9-1.9 1-2.8.7-1-.4-2.1-1.5-1.8-2.5.3-.9 1.7-1.4 2.6-1.1 1.1.3 2.4 1.8 2 2.9z" stroke="#fff" stroke-miterlimit="4.3" stroke-linecap="round" fill="#fff" fill-rule="evenodd"></path><path d="M255.6 286.6c1 1 2.4.8 3.5.2-1.4.5-1.7 1.3-1.6 3.2" stroke="#fff" stroke-miterlimit="4.3" stroke-linecap="round" fill="#fff" fill-rule="evenodd"></path><path d="M208 91.11s1.6-5.68 4.7-7.52c2.2-1.29 5.8-1.35 6.1-1.31 1.4-2.67.9-4.32 1.5-5.94" stroke="#fff" fill="none"></path><path d="M201.2 70.3c.7-1.72 2.4-3.82 4-3.89 2.1-.1 1.3 4.68.5 6.79-.7 1.89-2.5 4.95-4.4 4.16-2.2-.91-1-4.88-.1-7.06z" stroke="#fff" stroke-miterlimit="4.3" stroke-linecap="round" fill="#fff" fill-rule="evenodd"></path><path d="M210 65.94c2.6.66 1.9 5.57 1.1 8.2-.9 2.74-3.2 7.31-5.9 6.3-2-.77-.8-4.45-.2-6.56.8-3.02.8-8.89 5-7.94zM219.5 69.32c1.9 1.13 1.4 4.44.9 6.58-.7 2.77-2.4 7.74-5.1 6.89-2.2-.68-.8-4.59-.2-6.76.7-2.57 1.6-8.49 4.4-6.71z" stroke="#fff" stroke-miterlimit="4.3" stroke-linecap="round" fill="#fff" fill-rule="evenodd"></path><path d="M214.7 66.87c4.5 1.34 1.3 5.94.5 8.76-.7 2.55-1.9 7.39-4.4 6.59-3.2-.99-.8-6.73.2-9.86.7-2.1.5-6.48 3.7-5.49zM238.3 166.9c3.3 5.3 12.6 7.6 12.2 18M280.1 161.2s3.34 1.92 6.12 3.35c3.85 1.99 6.55 2.69 10.06 1.1 3.79-1.71 4.54-4.33 7.44-11.53M277.5 175.5c1.7 5.6 7.1 3.4 10.1 11.2M294.4 184.1c6.4-.4 10.9 1.8 15 4.7M371.7 338.4c.7 3.1.7 4.3 3.3 6.5 2.3 1.9 3.1 5 3 8.3-.1 1.7 1.6 2.5 3.7 2.1 2.7-.5 1.9-8.4 1-11.4.8 2.7 1.8 6.5.7 10.2-.5 1.6 4.3 1 5-.6 1.4-3.2-.4-10.6-.4-10.6s1.1 5.5.7 9.5c-.1 1.3 3.3 1 3.9-.3.9-2.2-.1-9.9-.1-9.9s1 5.9.5 9c-.1 1 2.2.7 2.6-.2 2.7-5.2 1.5-11.3 1.5-12.7M283.69 147.63c.7 1.2.54 2.84 1.94 2.84 2.2 0 2.5-2.37 3.99-1.64M292.37 128.9c-4.13.79-8.42 2.5-8.48 4.9M277.2 136.9c-3.9-.7-6.4.4-7.8 2.8" stroke="#fff" stroke-miterlimit="4.3" stroke-linecap="round" fill="#fff" fill-rule="evenodd"></path><path d="M272.34 143.08c2.99.43 5.64-1.91 6.59-3.04-2.88-1.54-7.01-.12-6.59 3.04z" stroke="#fff" stroke-miterlimit="4.3" stroke-linecap="round" fill="#fff" fill-rule="evenodd"></path><path d="M286.13 158.26c5.07 2.27 8.56.5 10.07-5.06 0 0-2.7 0-4.06.47-.69.26-.75 1.07-1.4 1.39-.58.29-1.15.1-1.74.33-1.14.48-2.87 2.87-2.87 2.87z" stroke="#fff" stroke-miterlimit="4.3" stroke-linecap="round" fill="#fff" fill-rule="evenodd"></path><path d="M303.75 134.22c8 6.8 17.5 5.5 22.1 11.1M355.6 235.3c-10.2-14.2-6.7-19.7-14.5-28.1M322.5 241.5c-.8-5.1-.7-6.9-.4-9.2" stroke="#fff" fill="none"></path><path d="M287.05 136.62c3.21.46 5.72-1.31 6.95-3.38-2.66-1.68-6.46-.47-6.95 3.38z" stroke="#fff" stroke-miterlimit="4.3" stroke-linecap="round" fill="#fff" fill-rule="evenodd"></path><circle fill-rule="evenodd" r="1" stroke="#fff" fill="#fff" stroke-linecap="round" cx="275.72" cy="140.77" stroke-miterlimit="4.3"></circle><circle fill-rule="evenodd" r="1" stroke="#fff" fill="#fff" stroke-linecap="round" cx="290.51" cy="134.34" stroke-miterlimit="4.3"></circle><path d="M286.13 158.26c5.08-.52 7.43-2.86 10.07-5.06" stroke="#fff" stroke-miterlimit="4.3" stroke-linecap="round" fill="#fff" fill-rule="evenodd"></path></g></g></mask></defs><g transform="translate(44.8,54.450886665146854)rotate(0)scale(0.1510460458450875,0.1510460458450875)translate(-204.03190612792966,-290.61687469482416)"><metadata xmlns:rdf="http://www.w3.org/1999/02/22-rdf-syntax-ns#" xmlns:cc="http://creativecommons.org/ns#" xmlns:dc="http://purl.org/dc/elements/1.1/"><rdf:RDF><rdf:Description dc:title="Dancing Maiden Piper" dc:creator="vlk2020"></rdf:Description><cc:Work rdf:about="https://heraldicon.org/charges/7OiOUr/1"><cc:license rdf:resource="https://creativecommons.org/licenses/by-sa/3.0"></cc:license><cc:attributionName>Dancing Maiden Piper by vlk2020</cc:attributionName><cc:attributionURL rdf:resource="https://heraldicon.org/users/vlk2020"></cc:attributionURL></cc:Work><cc:License rdf:about="https://creativecommons.org/licenses/by-sa/3.0"><cc:permits rdf:resource="http://creativecommons.org/ns#Reproduction"></cc:permits><cc:permits rdf:resource="http://creativecommons.org/ns#DerivativeWorks"></cc:permits><cc:permits rdf:resource="http://creativecommons.org/ns#Distribution"></cc:permits><cc:requires rdf:resource="http://creativecommons.org/ns#Notice"></cc:requires><cc:requires rdf:resource="http://creativecommons.org/ns#Attribution"></cc:requires><cc:requires rdf:resource="http://creativecommons.org/ns#ShareAlike"></cc:requires></cc:License></rdf:RDF><rdf:RDF rdf:about="https://awoiaf.westeros.org/index.php/File:House_Piper.svg"><rdf:Description dc:title="https://awoiaf.westeros.org/index.php/File:House_Piper.svg" dc:creator="https://awoiaf.westeros.org/index.php/File:House_Piper.svg"></rdf:Description><cc:Work rdf:about="https://awoiaf.westeros.org/index.php/File:House_Piper.svg"><cc:license rdf:resource="https://creativecommons.org/licenses/by-sa/3.0"></cc:license><cc:attributionName>https://awoiaf.westeros.org/index.php/File:House_Piper.svg</cc:attributionName><cc:attributionURL rdf:resource="https://awoiaf.westeros.org/index.php/File:House_Piper.svg"></cc:attributionURL></cc:Work></rdf:RDF></metadata><g><g mask="url(#mask_7)"><rect transform="translate(204.03190612792966,290.61687469482416)scale(6.620497705882337,6.620497705882337)rotate(0)translate(-44.8,-54.450886665146854)" x="-500" y="-500" width="1100" height="1100" fill="#333333"></rect></g><g mask="url(#mask_6)"><g transform="translate(204.03190612792966,290.61687469482416)scale(6.620497705882337,6.620497705882337)rotate(0)translate(-44.8,-54.450886665146854)"><rect y="-1000" fill="#d99292" width="2000" x="-1000" height="2000"></rect><g></g></g></g><g mask="url(#mask_5)"><g fill="#333333" stroke="none" stroke-width="0" style="clip-rule:evenodd" transform="translate(-67.03125,-30.64544677734375)"><g stroke="#333333" stroke-width="1" stroke-linecap="round"><path d="M212.6 79.41c-18.6-14.36-24.4-24.04-58.8-28.97-29.7-1.14-60.57 3.84-85.58 13.06 13.74 3.77 23.57 30.41 20.42 37.7 14.16-11.73 45.96-32.33 72.76-34.96 17.5-1.72 24.3-.87 51.2 13.17zM373.4 347.3s17.9-10.9 53.4 3.3c35.5 14.1 43.8 91.3 44.3 101.2-9.9-1.9-36 18.9-41 25.2 3.6-18.1 12.3-75.6-7.1-104.8-10.2-15.4-18.1-21.3-49.6-24.9zM168.5 381.7c-13.7-10.8-21.4-21.4-20.8-34.9.7-16.7 15.9-30.7 29.3-40.7 13.1-9.8 30.2-13.1 46.3-16.3 64.7-13 139.8 20.7 197.6-11.1 16.7-9.2 29.5-30 33.3-46.6 16.6-72.1-7.4-90.5-18.6-107.8 9.6 22.2 11.3 39.3 3.6 56.5-9.8 22.1-33.9 37.2-56.8 45-54.9 18.7-116.6-11.3-173.8-2.3-21.5 3.3-44.1 8.2-61.8 20.8-20.5 14.6-37.8 36.1-46 59.9-4.38 12.5-3.26 29.6-.5 39.7 8.7 30.2 31.3 43.3 68.2 37.8z" stroke="#333333" stroke-miterlimit="4.3" stroke-linecap="round" fill="#f6f6f6" fill-rule="evenodd"></path><path d="M312.8 68.26C345 71.6 377.5 83.28 404 102c20.4 14.5 39.2 34.4 48 57.8 8.5 22.6 6.6 53.8 2.2 72.3 15.4-35.1 25.8-80.5 16.5-119.6-5.4-22.49-21-43.14-39.5-57.01-19.5-14.59-45.1-20.08-69.2-23.06-21.9-2.7-44.8-1.18-65.9 5.01-26.5 7.76-45.4 37.45-72.9 39.27-24.7 1.63-21.5-19.61-69.4-26.27 29.6 8.9 30.5 18.63 42.8 23.04 12.3 4.41 18.8 7.26 28.7 7.85 29.4 1.75 58.2-16.1 87.5-13.07z" stroke="#333333" stroke-miterlimit="4.3" stroke-linecap="round" fill="#f6f6f6" fill-rule="evenodd"></path><path d="M365.6 109.4c-.9-3.3-10.2-4.8-13.2-3.2-5.7 2.9-5.7 14.7-12.1 15-6.2.3-4.6-9-12.3-11.4-5.9-1.8-10.6 4.4-13.9 4.5-3.8.1-11.3-14.59-20-14.1-8.1-2.69-17.3 1.2-21.2 6.3-7.4 0-12.1 3.1-15.2 10-2.9 6.5 2.6 18.1-2 23.6-12.8 15.3-3.8 32.3-15.5 42.9-9 8.1-28.3 13.7-15.3 42 17.9 38.7 23.4 85.2 17.2 83.2 25.8-12.6 25.5-23.5 28.5-36.7.4 19.2 6.3 35.3 18.8 47.5-1.7-14.9 3.4-26.8 13.8-33.1 11.8 8.1 14.3 26 20.8 36.5 3.9 6.3 18 11.7 24.7 7.9-17.3-13.5-17-34.5-17.4-46.1 13.9 4.9 17.4 14.7 25.3 28.3 3.1-20.5-10.1-36-22.1-46.8 21.5-.7 31.2 18.2 41.1 27.8 2.7-16.8-7.7-41.7-20-58.2 6.8 9.1 13.4 17.1 24.1 15 12.8-2.5 17.3 3.2 26.1 22.4-1.6-12.5-3.5-26.2-17.6-33.8 10.5 6 32.9-1.7 43.7-16.6-5 5.1-37.7 15.3-51.8 4.2-15.1-11.9-8.7-34.9-18.6-51.4-5.3-8.9-24.1-5.8-26.7-15.8 9 6.7 15.8 4 21.3.2 3.6-2.5 7.7-2.8 12-2.5 13.6 1 24.3 15.9 35-1.8-7 3.3-19.4 1.9-24.3-3.3-6-6.4-6.2-11.6-14.6-14.1-10.6-3.2-10.5 1.8-21.5.9-8.6-.7-11.3-1.4-14.9-9.2 8.6 2.4 14 2.8 19.9-1.4 3.3-2.4 4.9-8.9 7.1-12.3 1.6-2.5 3.1-6.7 10.8-6.4z" stroke="#333333" stroke-miterlimit="4.3" stroke-linecap="round" fill="#a32c45" fill-rule="evenodd"></path><path d="M357.1 517.7c-2.5-7.6 1.1-17.2-3.5-23.7-2.9-4.1-10.9.5-14.8-2.5-5.7-4.4-8.8-11.4-11.6-18-8.2-19.7-24.7-31.1-27.7-33.2-2.4-3.3 1.5-14.3 2.7-19.8 6.4-30.4 13.8-57.2 12.9-87.9-.4-14.5-7.6-28-10.3-42.3-.9-4.9-2.1-8.6-.4-13.3 4.4-11.9 10.8-19.1 18.1-35.5 1.5 13.2 10.5 22.6 16.4 34.3 7.8 15.4 7.8 12.9 13.7 29.1 2.7 7.3 12 17.6 11.9 20.1-.1 2.2-.9 24.6 6.4 26.1l25.5-10.5c1.9-.8.1-4.7-1.4-6.1-5.4-5.1-12.8-13-18.9-18.6-2-9.9-7.5-30.3-13.1-44.9-2.5-6.5-8.5-11.4-10.9-18-6.4-17.4-8.2-37-16.4-53.6-2.9-5.9-10.9-10.3-15.5-15-4.1-4.2-11.32-7.58-12.9-13.19-2.42-8.59 3.3-15.61 1.7-24.41-3.65-6.3-4.54-9.7-5.25-12.58-9.3-6.1-7.75-10.32-9.85-14.62-7.4 1.1-13.53.77-18.93-1.63-.9 3.8-3.87 7.23-8.77 12.33-.4 8.6 1.4 8.1 3.9 13.3 1 5 .7 9 10 17.6.3 2.9-.3 4.7-.4 7.7-9.3-12.4-20.2-18.3-40.6-16-10.1-5.6-24.2-5.8-32.5-5.8 3.1-11 2.4-23.2 3.1-34.8.3-4.1 2.8-9.6 4.7-13.49 9-5.8 11.3-16.74 10.6-21.23-.6-4.15 1.5-7.19-1.3-6.92-2.5.24-2.7 2.45-3.4 5.68-7.8-.73-11.8-3.58-19.6-4.31-1.5 3.95-3.8 8.75-3.6 13.92.1 3.67-.3 5.86.6 10.36-6.6 19.89-12.5 41.99-11 59.89-1.3 2.5 1.9 5.3 3.4 5 17 10.2 35.1 15.3 51.2 17.9 2.9 2.6 3.5 3.8 9.2 5.8-2.6 23-8.6 24.6-11.9 29.6-2.9-.3-4.6 3.6-2.1 5.9-2.3 11.4 4.8 15.6 8.4 17-.9 7.2-.4 16.6-2.3 23.5-2.7 10.1-9.6 15.3-11 25.6-3.5 24.4-10.5 29.7-2.6 76.5 4.1 24.4 5.5 30.9 13.4 54.4 3.4 10 10.5 16 14.1 25.9 6.6 18.1 1.1 6 8.1 24 4.1 10.5 8.2 17.7 10.9 28.7 4 16 22.1 46.3 20.5 56.8-.7 4.8.3 14.5.8 30.7.1 2.4-2.1 5-5.6 7.5 0 0-1.3.5-2.3 1.1-.4.3-1.5 1-.3 1.8.5.7 2.7-.6 5.3-.6-1.2 0-3.6.2-4.8 1.4-.6.5 0 2.1 1.1 2.2 1.9.1 3.6-1.1 5.5-1.6-1.9.9-3.8 1.2-5.4 2.3-.9.7-.2 2.7 1.9 2.6 2.2-.2 3.9-.6 5.8-1.8-1.7 1.6-5.6 1.5-6.8 2.4-1.5 1.2.2 3.6 1.4 3.8 1.4.2 5.1-1.1 7.2-2-1.2 1.1-5.8 1.7-7.6 2.6-1.6.9 0 5 1.7 5.5 3.1.9 7.5-.3 8.9-1.4 3.4-2.8 8.3-3.7 9.7-7.9 2.6-7.8-1.6-16.7.7-24.6 1.6-5.5 8.7-8.2 10.5-13.6 1-3.2-1.2-7-3.1-9.7-2.2-3.1-8.6-3.3-9.1-7.1-2.7-20.7-6.3-41.1-6.6-61.2 7 6.5 17.7 13.5 25 22.1 3.9 4.6 5 11.2 8.2 16.3 2.5 4 6.5 6.9 8.5 11.1 2.1 4.5 1.3 9.9 3.3 14.4.5 1.4-.2 2 1.2 2.7 1.8.8 3.7.3 4.6-1.5 1.2-2.2-.7-5.3-2-7.9 1.1 1.1 1.6 3.3 2.9 4.6 2.1 1.8 2.2-4.7.4-7.3.8 1.3 1.5 4.5 2.9 4.8 2.1.5 1.3-5.3 0-7.8.8.9 1.1 4.3 2.7 4.4 1.7.2 1.3-4.2 0-6.6.6 1.3 1.1 5.2 2.2 4.4 1.7-1.2 1.4-3.8 1.4-5.9 1.3-5.8-7.3-9.7-9.1-15.3z" stroke="#333333" stroke-miterlimit="4.3" stroke-linecap="round" fill="#333333" fill-rule="evenodd"></path><path d="M304.9 485.2c-3.3-3.6-19.5-14.8-27.4-23.1-1.9-2-6.3-5.6-8.1-14.2-1.5-6.8-.3-13.8-2.5-22.8-7.1-29.5-4.4-38.3-4.4-73.1-7.5-5-14.5-7.1-23.7-21.7M270.5 341.2c4.3-1.6 6.8-3.8 8.8-6.3" stroke="#333333" stroke-miterlimit="4.3" stroke-linecap="round" fill="#333333" fill-rule="evenodd"></path><path d="M100.3 343.9c8.8 21.8 25.4 29.3 43.1 31.9 33 4.9 61.7-26.9 94.5-33.4 17.9-3.5 36.5-4.3 54.7-2.8 23.2 1.9 45.3 18.9 68.2 14.8 6-1.1 9.8-7.9 15.6-9.9 6.4-2.2 13.5-2.5 20.2-1.9 10.4.8 22.4 4.4 30.2 8-10.4-2.3-31.5-6.5-47.9 1.1-5.5 2.5-9.1 8.5-14.8 10.3-27.5 8.4-58-6.3-86.2-.7-41 8.2-73.6 46.3-115.3 49-12.5.8-26.6-2.1-36.1-10.2-15.8-13.4-26.2-56.2-26.2-56.2z" stroke="#333333" stroke-miterlimit="4.3" stroke-linecap="round" fill="#f6f6f6" fill-rule="evenodd"></path><path d="M254.3 238.8c-3.2.1-7-.4-9.4-1.4M272.4 239c5.2 7.3 12.1 10.4 19.5 10.9 5.2.4 11.1-1.7 14.5-5.6 6.9-7.7 2.9-13.3 5.4-18.4 1.4-1.4 4.7-2.4 7-1.8 4 .9 7.1 3.8 9.3 8.1" stroke="#333333" stroke-miterlimit="4.3" stroke-linecap="round" fill="#333333" fill-rule="evenodd"></path><path d="M293.8 231.1c-.4.9-1.9 1-2.8.7-1-.4-2.1-1.5-1.8-2.5.3-.9 1.7-1.4 2.6-1.1 1.1.3 2.4 1.8 2 2.9z" stroke="#333333" stroke-miterlimit="4.3" stroke-linecap="round" fill="#f2bc51" fill-rule="evenodd"></path><path d="M255.6 286.6c1 1 2.4.8 3.5.2-1.4.5-1.7 1.3-1.6 3.2" stroke="#333333" stroke-miterlimit="4.3" stroke-linecap="round" fill="#333333" fill-rule="evenodd"></path><path d="M208 91.11s1.6-5.68 4.7-7.52c2.2-1.29 5.8-1.35 6.1-1.31 1.4-2.67.9-4.32 1.5-5.94" stroke="#333333" fill="none"></path><path d="M201.2 70.3c.7-1.72 2.4-3.82 4-3.89 2.1-.1 1.3 4.68.5 6.79-.7 1.89-2.5 4.95-4.4 4.16-2.2-.91-1-4.88-.1-7.06z" stroke="#333333" stroke-miterlimit="4.3" stroke-linecap="round" fill="#333333" fill-rule="evenodd"></path><path d="M210 65.94c2.6.66 1.9 5.57 1.1 8.2-.9 2.74-3.2 7.31-5.9 6.3-2-.77-.8-4.45-.2-6.56.8-3.02.8-8.89 5-7.94zM219.5 69.32c1.9 1.13 1.4 4.44.9 6.58-.7 2.77-2.4 7.74-5.1 6.89-2.2-.68-.8-4.59-.2-6.76.7-2.57 1.6-8.49 4.4-6.71z" stroke="#333333" stroke-miterlimit="4.3" stroke-linecap="round" fill="#333333" fill-rule="evenodd"></path><path d="M214.7 66.87c4.5 1.34 1.3 5.94.5 8.76-.7 2.55-1.9 7.39-4.4 6.59-3.2-.99-.8-6.73.2-9.86.7-2.1.5-6.48 3.7-5.49zM238.3 166.9c3.3 5.3 12.6 7.6 12.2 18M280.1 161.2s3.34 1.92 6.12 3.35c3.85 1.99 6.55 2.69 10.06 1.1 3.79-1.71 4.54-4.33 7.44-11.53M277.5 175.5c1.7 5.6 7.1 3.4 10.1 11.2M294.4 184.1c6.4-.4 10.9 1.8 15 4.7M371.7 338.4c.7 3.1.7 4.3 3.3 6.5 2.3 1.9 3.1 5 3 8.3-.1 1.7 1.6 2.5 3.7 2.1 2.7-.5 1.9-8.4 1-11.4.8 2.7 1.8 6.5.7 10.2-.5 1.6 4.3 1 5-.6 1.4-3.2-.4-10.6-.4-10.6s1.1 5.5.7 9.5c-.1 1.3 3.3 1 3.9-.3.9-2.2-.1-9.9-.1-9.9s1 5.9.5 9c-.1 1 2.2.7 2.6-.2 2.7-5.2 1.5-11.3 1.5-12.7M283.69 147.63c.7 1.2.54 2.84 1.94 2.84 2.2 0 2.5-2.37 3.99-1.64M292.37 128.9c-4.13.79-8.42 2.5-8.48 4.9M277.2 136.9c-3.9-.7-6.4.4-7.8 2.8" stroke="#333333" stroke-miterlimit="4.3" stroke-linecap="round" fill="#333333" fill-rule="evenodd"></path><path d="M272.34 143.08c2.99.43 5.64-1.91 6.59-3.04-2.88-1.54-7.01-.12-6.59 3.04z" stroke="#333333" stroke-miterlimit="4.3" stroke-linecap="round" fill="#fff" fill-rule="evenodd"></path><path d="M286.13 158.26c5.07 2.27 8.56.5 10.07-5.06 0 0-2.7 0-4.06.47-.69.26-.75 1.07-1.4 1.39-.58.29-1.15.1-1.74.33-1.14.48-2.87 2.87-2.87 2.87z" stroke="#333333" stroke-miterlimit="4.3" stroke-linecap="round" fill="#333333" fill-rule="evenodd"></path><path d="M303.75 134.22c8 6.8 17.5 5.5 22.1 11.1M355.6 235.3c-10.2-14.2-6.7-19.7-14.5-28.1M322.5 241.5c-.8-5.1-.7-6.9-.4-9.2" stroke="#333333" fill="none"></path><path d="M287.05 136.62c3.21.46 5.72-1.31 6.95-3.38-2.66-1.68-6.46-.47-6.95 3.38z" stroke="#333333" stroke-miterlimit="4.3" stroke-linecap="round" fill="#fff" fill-rule="evenodd"></path><circle fill-rule="evenodd" r="1" stroke="#333333" fill="#f6f6f6" stroke-linecap="round" cx="275.72" cy="140.77" stroke-miterlimit="4.3"></circle><circle fill-rule="evenodd" r="1" stroke="#333333" fill="#f6f6f6" stroke-linecap="round" cx="290.51" cy="134.34" stroke-miterlimit="4.3"></circle><path d="M286.13 158.26c5.08-.52 7.43-2.86 10.07-5.06" stroke="#333333" stroke-miterlimit="4.3" stroke-linecap="round" fill="#333333" fill-rule="evenodd"></path></g></g></g></g></g></g></g></g></g></g></g><g transform="translate(0,0)" style="transition:transform 0.5s"></g></g></svg>