<?xml version="1.0" encoding="UTF-8" standalone="no"?>
<!-- Created with Inkscape (http://www.inkscape.org/) -->

<svg
   width="196.82353mm"
   height="237.81047mm"
   viewBox="0 0 196.82353 237.81047"
   version="1.1"
   id="svg1"
   inkscape:version="1.4.2 (f4327f4, 2025-05-13)"
   sodipodi:docname="darklyn.svg"
   xmlns:inkscape="http://www.inkscape.org/namespaces/inkscape"
   xmlns:sodipodi="http://sodipodi.sourceforge.net/DTD/sodipodi-0.dtd"
   xmlns="http://www.w3.org/2000/svg"
   xmlns:svg="http://www.w3.org/2000/svg">
  <sodipodi:namedview
     id="namedview1"
     pagecolor="#ffffff"
     bordercolor="#000000"
     borderopacity="0.25"
     inkscape:showpageshadow="2"
     inkscape:pageopacity="0.0"
     inkscape:pagecheckerboard="0"
     inkscape:deskcolor="#d1d1d1"
     inkscape:document-units="mm"
     inkscape:zoom="0.35945918"
     inkscape:cx="1.3909785"
     inkscape:cy="390.86497"
     inkscape:window-width="1920"
     inkscape:window-height="1009"
     inkscape:window-x="-8"
     inkscape:window-y="-8"
     inkscape:window-maximized="1"
     inkscape:current-layer="layer1" />
  <defs
     id="defs1" />
  <g
     inkscape:label="Warstwa 1"
     inkscape:groupmode="layer"
     id="layer1"
     transform="translate(-20.902083,-136.525)">
    <path
       d="m 217.06416,137.18645 v 75.85605 c 0,10.41135 -0.70379,20.21152 -1.98966,29.42695 -0.43657,3.1168 -0.93663,6.1648 -1.50019,9.14665 -1.98967,10.52248 -4.74927,20.23004 -8.07773,29.17296 -4.13544,11.09927 -9.14665,21.02379 -14.64733,29.86087 -5.67532,9.11225 -11.87186,17.07092 -18.16894,23.97919 -6.731,7.38452 -13.57313,13.56519 -20.01573,18.67164 v 0 c -0.29633,0.24078 -0.59267,0.47361 -0.889,0.7038 -9.1731,7.17285 -17.46779,12.14966 -23.37329,15.29556 -5.59858,2.98185 -9.0461,4.318 -9.0461,4.318 0,0 -3.37344,-1.30969 -8.86619,-4.23069 -5.8764,-3.12473 -14.176377,-8.0936 -23.365356,-15.27704 -0.05556,-0.0423 -0.113771,-0.0873 -0.169333,-0.13229 -0.02117,-0.0159 -0.03969,-0.0317 -0.06085,-0.0476 C 58.512603,331.66843 21.804312,288.32174 21.804312,213.0425 V 137.18645 H 217.06681 Z"
       style="fill:#f2bc51;stroke-width:0.264583"
       id="path1-9" />
    <g
       id="g2"
       transform="matrix(0.26458333,0,0,0.26458333,10.689166,129.01083)">
      <polygon
         id="polygon2-8"
         points="667.6,706.9 673.9,697.6 680.5,687.1 684.3,681 691.4,668.9 697.4,658.3 703.4,647.3 711,632.3 716.8,620.2 722.4,607.9 728.9,592.5 733.2,581.6 736.8,572.2 742,557.7 746.4,544.2 750.4,531.6 753.9,518.9 757.3,506.3 760.9,491.5 764.1,477.1 766.4,465.5 768.5,453.8 770.5,441.8 772.5,428.4 774.3,414.9 775.6,403.3 776.7,391.8 777.9,377.7 779,360.4 779.4,349.2 780,332.9 780,30.9 41.1,30.9 41.1,332.9 41.7,349.2 42.1,360.4 43.2,377.7 44.4,391.8 45.5,403.3 46.8,414.9 48.6,428.4 50.6,441.8 52.6,453.8 54.7,465.5 57,477.1 60.2,491.5 63.8,506.3 67.2,518.9 70.7,531.6 74.7,544.2 79.1,557.7 84.3,572.2 87.9,581.6 92.2,592.5 98.7,607.9 104.3,620.2 110.1,632.3 117.7,647.3 123.7,658.3 129.7,668.9 136.8,681 140.6,687.1 147.2,697.6 153.5,706.9 162.1,719.3 169.5,729.4 178.6,741.3 186.4,751.1 197.2,763.9 204.6,772.4 211.8,780.4 219.7,788.7 232.6,801.8 244.7,813.4 258.3,825.7 271.7,837.3 280.9,844.8 291.7,853.3 303.8,862.4 315.7,870.9 329.1,880 345.9,890.8 362.2,900.4 378.4,909.3 387.9,914.2 395.7,918 403.4,921.5 410.7,924.5 417.7,921.5 425.4,918 433.2,914.2 442.7,909.3 458.9,900.4 475.2,890.8 492,880 505.4,870.9 517.3,862.4 529.4,853.3 540.2,844.8 549.4,837.3 562.8,825.7 576.4,813.4 588.5,801.8 601.4,788.7 609.3,780.4 616.5,772.4 623.9,763.9 634.7,751.1 642.5,741.3 651.6,729.4 659,719.3 "
         style="fill:none;stroke:#000000;stroke-width:5px;stroke-miterlimit:10" />
    </g>
    <path
       d="m 168.26177,164.32477 -16.25336,-27.13832 -16.27187,27.15155 16.27187,27.15154 16.25336,-27.13831 16.26394,27.13831 L 200.787,164.338 184.52571,137.18645 Z m 48.80239,-27.13832 -16.27187,27.15155 16.27187,27.15154 0.0212,-0.0344 v -54.23429 z m -113.8555,27.13832 -16.253349,-27.13832 -0.06085,0.10055 v 54.09935 l 0.06085,0.10054 16.253349,-27.13831 16.26394,27.13831 16.26129,-27.15154 -16.26129,-27.15154 -16.26394,27.13831 z"
       style="fill:#333333;stroke:#000000;stroke-width:0.79375px;stroke-linejoin:round"
       id="path3-8" />
    <path
       d="m 119.4726,191.48954 -16.26394,27.13831 -16.255995,-27.13831 -0.06085,0.10054 v 54.09935 l 0.06085,0.10319 16.255995,-27.13831 16.26394,27.13831 16.26129,-27.15154 z m 81.31969,27.15154 14.28221,23.82837 c 1.28587,-9.21543 1.98966,-19.0156 1.98966,-29.42695 v -21.55296 z m -16.26658,-27.15154 -16.26394,27.13831 -16.25336,-27.13831 -16.27187,27.15154 16.27187,27.15154 16.25336,-27.13831 16.26394,27.13831 16.26129,-27.15154 z"
       style="fill:#333333;stroke:#000000;stroke-width:0.79375px;stroke-linejoin:round"
       id="path4-2" />
    <path
       d="m 119.4726,245.79262 -16.26394,27.13567 -16.255995,-27.13567 -0.06085,0.10054 v 54.09936 l 0.06085,0.10054 16.255995,-27.13567 16.26394,27.13567 16.26129,-27.15154 z m 81.31969,27.1489 4.70429,7.84754 c 3.32846,-8.94292 6.08806,-18.65048 8.07773,-29.17296 z m -16.26658,-27.1489 -16.26394,27.13567 -16.25336,-27.13567 -16.27187,27.1489 16.27187,27.15154 16.25336,-27.13567 16.26394,27.13567 16.26129,-27.15154 z"
       style="fill:#333333;stroke:#000000;stroke-width:0.79375px;stroke-linejoin:round"
       id="path5-4" />
    <path
       d="m 119.4726,300.09306 -16.26394,27.13831 -16.255995,-27.13831 -0.06085,0.10318 v 53.73423 c 0.02117,0.0159 0.03969,0.0317 0.06085,0.0476 0.05556,0.045 0.113771,0.09 0.169333,0.13229 l 16.086662,-26.85256 16.26394,27.13831 16.26129,-27.15154 z m 65.05311,0 -16.26394,27.13831 -16.25336,-27.13831 -16.27187,27.15154 16.0364,26.75996 c 0.29633,-0.23019 0.59266,-0.46302 0.889,-0.70115 v 0 c 0,0 15.59718,-26.04558 15.59718,-26.04558 l 4.41854,7.37129 c 6.29709,-6.90827 12.49363,-14.86694 18.16894,-23.97919 l -6.32354,-10.55687 z"
       style="fill:#333333;stroke:#000000;stroke-width:0.79375px;stroke-linejoin:round"
       id="path6-5" />
    <path
       d="m 152.66194,353.30341 -0.65353,1.09273 -0.23547,-0.39158 c 0.29633,-0.23019 0.59266,-0.46302 0.889,-0.70115 z"
       style="fill:#bc2e2e;stroke:#1d1d1b;stroke-width:0.79375px;stroke-linejoin:round"
       id="path7-5" />
    <path
       d="m 86.952665,354.39614 -0.06085,-0.10054 v -0.36513 c 0.02117,0.0159 0.03969,0.0317 0.06085,0.0476 0.05556,0.045 0.113771,0.09 0.169333,0.13229 z"
       style="fill:#bc2e2e;stroke:#1d1d1b;stroke-width:0.79375px;stroke-linejoin:round"
       id="path8-1" />
    <path
       d="m 119.4726,354.39614 -8.98525,14.99129 c 5.49275,2.921 8.86619,4.23069 8.86619,4.23069 0,0 3.44752,-1.33615 9.0461,-4.318 z"
       style="fill:#333333;stroke:#000000;stroke-width:0.79375px;stroke-linejoin:round"
       id="path9-7" />
    <path
       d="m 70.682179,164.3313 16.253328,-27.13832 16.271843,27.15155 -16.271843,27.15155 -16.253328,-27.13832 -16.2639,27.13832 -16.26126,-27.15155 16.26126,-27.15155 z m -48.802299,-27.13832 16.271845,27.15155 -16.271845,27.15155 -0.02119,-0.0344 v -54.23431 z m 113.85528,27.13832 v 0.0238 l -16.2639,27.13833 -16.26126,-27.15156 16.26126,-27.15155 16.2639,27.13832 z"
       style="fill:#333333;stroke:#000000;stroke-width:0.793747px;stroke-linejoin:round"
       id="path185"
       sodipodi:nodetypes="cccccccccccccccccccccc" />
    <path
       d="m 119.47126,191.49608 16.2639,27.13833 v 0.0265 L 119.47126,245.79919 103.21,218.64764 Z m -81.319535,27.15156 -14.282183,23.82838 c -1.28587,-9.21544 -1.989662,-19.01561 -1.989662,-29.42697 v -21.55297 z m 16.266554,-27.15156 16.2639,27.13833 16.253328,-27.13833 16.271843,27.15156 -16.271843,27.15155 -16.253328,-27.13833 -16.2639,27.13833 -16.26126,-27.15155 z"
       style="fill:#333333;stroke:#000000;stroke-width:0.793747px;stroke-linejoin:round"
       id="path370"
       sodipodi:nodetypes="ccccccccsccccccccccc" />
    <path
       d="m 119.47126,245.79919 16.2639,27.13568 v 0.0291 L 119.47126,300.09965 103.21,272.9481 Z m -81.319535,27.14891 -4.704283,7.84754 c -3.328455,-8.94292 -6.088051,-18.65048 -8.077713,-29.17297 z m 16.266554,-27.14891 16.2639,27.13568 16.253328,-27.13568 16.271843,27.14891 -16.271843,27.15155 -16.253328,-27.13568 -16.2639,27.13568 -16.26126,-27.15155 z"
       style="fill:#333333;stroke:#000000;stroke-width:0.793747px;stroke-linejoin:round"
       id="path555"
       sodipodi:nodetypes="ccccccccccccccccccc" />
    <path
       d="m 119.47126,300.09965 16.2639,27.13833 v 0.0265 L 119.47126,354.40276 103.21,327.2512 Z m -65.052981,0 16.2639,27.13833 16.253328,-27.13833 16.271843,27.15155 -16.036367,26.75997 c -0.296328,-0.23018 -0.592664,-0.46301 -0.888992,-0.70114 v 0 l -15.597161,-26.0456 -4.418531,7.3713 c -6.297075,-6.90827 -12.493603,-14.86695 -18.168908,-23.9792 l 6.323529,-10.55687 z"
       style="fill:#333333;stroke:#000000;stroke-width:0.793747px;stroke-linejoin:round"
       id="path740"
       sodipodi:nodetypes="cccccccccccscccccc" />
    <path
       d="m 119.47126,354.40276 8.98523,14.9913 c -5.49274,2.921 -8.86617,4.23069 -8.86617,4.23069 0,0 -3.44751,-1.33615 -9.04608,-4.31801 z"
       style="fill:#333333;stroke:#000000;stroke-width:0.793747px;stroke-linejoin:round"
       id="path925" />
  </g>
</svg>
