<?xml version="1.0" encoding="UTF-8" standalone="no"?>
<svg
   xmlns:dc="http://purl.org/dc/elements/1.1/"
   xmlns:cc="http://creativecommons.org/ns#"
   xmlns:rdf="http://www.w3.org/1999/02/22-rdf-syntax-ns#"
   xmlns:svg="http://www.w3.org/2000/svg"
   xmlns="http://www.w3.org/2000/svg"
   version="1.1"
   id="Layer_1"
   x="0px"
   y="0px"
   width="820px"
   height="952px"
   viewBox="0 0 820 952"
   enable-background="new 0 0 820 952"
   xml:space="preserve"><metadata
     id="metadata19"><rdf:RDF><cc:Work
         rdf:about=""><dc:format>image/svg+xml</dc:format><dc:type
           rdf:resource="http://purl.org/dc/dcmitype/StillImage" /><dc:title></dc:title></cc:Work></rdf:RDF></metadata><defs
     id="defs17" /><g
     id="g277"><circle
       cx="410"
       cy="476"
       r="398.17001"
       style="fill:#e58a38;stroke:#000000;stroke-width:5px"
       id="circle2" /><g
       id="g267"><path
         d="M 397.5,249.5 C 397.86524,226.27363 380,211.49999 380,211.49999 L 411.69952,103.8 440,211.5 c 0,0 -18.13571,15.4009 -18.49999,38.49999 z"
         style="fill:#f2bc51;stroke:#000000;stroke-width:3px;stroke-linejoin:round"
         id="path4" /><g
         id="g10"
         transform="rotate(45.43,392.3366,474.16843)"><line
           x1="242.67"
           y1="302.70999"
           x2="162.00999"
           y2="220.72"
           style="fill:#f2bc51"
           id="line6" /><polygon
           points="243.74,301.66 241.6,303.76 162.01,220.72 "
           id="polygon8" /></g></g><path
       d="m 421.5,844.5 c 0.008,2.1709 -5.40952,3.49289 -12,3.5 -6.59047,0.007 -12,-1.32907 -12,-3.5 v -595 l 24.00001,0.49999 z"
       style="fill:#f2bc51;stroke:#000000;stroke-width:3px;stroke-linejoin:round"
       id="path96" /><path
       id="rect94"
       style="fill:#f2bc51;stroke:#000000;stroke-width:3px;stroke-linejoin:round"
       d="m 397.5,245.5 h 24 c 4.24314,0.0652 7.83581,3.25603 7.7,7.5 -0.13581,4.24397 -3.45636,7.5 -7.7,7.5 h -24 c -4.24314,-0.0652 -7.7637,-3.25184 -7.7,-7.5 0.0637,-4.24816 3.45635,-7.5 7.7,-7.5 z" /></g></svg>
